<mxfile host="app.diagrams.net" modified="2023-05-05T20:35:13.658Z" agent="Mozilla/5.0 (X11; Ubuntu; Linux x86_64; rv:109.0) Gecko/20100101 Firefox/112.0" etag="p2mKvsACC3xEMzXIPbRU" version="21.2.9" type="device">
  <diagram name="Страница 1" id="sdadYHHcFvz9OQRhN0Z4">
    <mxGraphModel dx="2657" dy="1375" grid="0" gridSize="10" guides="1" tooltips="1" connect="1" arrows="1" fold="1" page="0" pageScale="1" pageWidth="827" pageHeight="1169" math="0" shadow="0">
      <root>
        <mxCell id="0" />
        <mxCell id="1" parent="0" />
        <mxCell id="m03nG1BBD5Hme34XasrQ-5" value="" style="rounded=1;whiteSpace=wrap;html=1;labelBackgroundColor=none;sketch=1;curveFitting=1;jiggle=2;fillColor=#FAE5C7;strokeColor=#0F8B8D;fontColor=#143642;" vertex="1" parent="1">
          <mxGeometry x="-800" y="100" width="630" height="670" as="geometry" />
        </mxCell>
        <mxCell id="m03nG1BBD5Hme34XasrQ-35" value="" style="rounded=1;whiteSpace=wrap;html=1;labelBackgroundColor=none;sketch=1;curveFitting=1;jiggle=2;fillColor=#e1d5e7;strokeColor=#9673a6;" vertex="1" parent="1">
          <mxGeometry x="-553" y="360" width="363" height="390" as="geometry" />
        </mxCell>
        <mxCell id="m03nG1BBD5Hme34XasrQ-17" style="edgeStyle=orthogonalEdgeStyle;rounded=1;orthogonalLoop=1;jettySize=auto;html=1;entryX=0.508;entryY=0.025;entryDx=0;entryDy=0;entryPerimeter=0;labelBackgroundColor=none;fontColor=default;sketch=1;curveFitting=1;jiggle=2;strokeColor=#A8201A;" edge="1" parent="1" source="m03nG1BBD5Hme34XasrQ-1" target="m03nG1BBD5Hme34XasrQ-6">
          <mxGeometry relative="1" as="geometry" />
        </mxCell>
        <mxCell id="m03nG1BBD5Hme34XasrQ-1" value="" style="shape=image;verticalLabelPosition=bottom;labelBackgroundColor=none;verticalAlign=top;aspect=fixed;imageAspect=0;image=https://dwglogo.com/wp-content/uploads/2017/09/3630px-Nginx_logo.png;imageBorder=default;imageBackground=default;rounded=1;sketch=1;curveFitting=1;jiggle=2;fillColor=#FAE5C7;strokeColor=#0F8B8D;fontColor=#143642;" vertex="1" parent="1">
          <mxGeometry x="-522.8399999999999" y="130" width="94.59" height="65" as="geometry" />
        </mxCell>
        <mxCell id="m03nG1BBD5Hme34XasrQ-55" style="edgeStyle=orthogonalEdgeStyle;rounded=1;orthogonalLoop=1;jettySize=auto;html=1;entryX=0.5;entryY=0;entryDx=0;entryDy=0;labelBackgroundColor=none;fontColor=default;sketch=1;curveFitting=1;jiggle=2;strokeColor=#A8201A;" edge="1" parent="1" source="m03nG1BBD5Hme34XasrQ-2" target="m03nG1BBD5Hme34XasrQ-1">
          <mxGeometry relative="1" as="geometry" />
        </mxCell>
        <mxCell id="m03nG1BBD5Hme34XasrQ-2" value="" style="shape=actor;whiteSpace=wrap;html=1;labelBackgroundColor=none;rounded=1;sketch=1;curveFitting=1;jiggle=2;" vertex="1" parent="1">
          <mxGeometry x="-512.55" y="20" width="74" height="60" as="geometry" />
        </mxCell>
        <mxCell id="m03nG1BBD5Hme34XasrQ-16" style="edgeStyle=orthogonalEdgeStyle;rounded=1;orthogonalLoop=1;jettySize=auto;html=1;entryX=1;entryY=0.5;entryDx=0;entryDy=0;entryPerimeter=0;labelBackgroundColor=none;fontColor=default;sketch=1;curveFitting=1;jiggle=2;strokeColor=#A8201A;" edge="1" parent="1" source="m03nG1BBD5Hme34XasrQ-6" target="m03nG1BBD5Hme34XasrQ-7">
          <mxGeometry relative="1" as="geometry" />
        </mxCell>
        <mxCell id="m03nG1BBD5Hme34XasrQ-6" value="" style="shape=cube;whiteSpace=wrap;html=1;boundedLbl=1;backgroundOutline=1;darkOpacity=0.05;darkOpacity2=0.1;labelBackgroundColor=none;rounded=1;sketch=1;curveFitting=1;jiggle=2;" vertex="1" parent="1">
          <mxGeometry x="-553" y="215" width="153" height="105" as="geometry" />
        </mxCell>
        <mxCell id="m03nG1BBD5Hme34XasrQ-32" style="edgeStyle=orthogonalEdgeStyle;rounded=1;orthogonalLoop=1;jettySize=auto;html=1;entryX=0.5;entryY=0;entryDx=0;entryDy=0;labelBackgroundColor=none;fontColor=default;sketch=1;curveFitting=1;jiggle=2;strokeColor=#A8201A;" edge="1" parent="1" source="m03nG1BBD5Hme34XasrQ-7" target="m03nG1BBD5Hme34XasrQ-25">
          <mxGeometry relative="1" as="geometry" />
        </mxCell>
        <mxCell id="m03nG1BBD5Hme34XasrQ-7" value="" style="shape=cylinder3;whiteSpace=wrap;html=1;boundedLbl=1;backgroundOutline=1;size=15;labelBackgroundColor=none;rounded=1;sketch=1;curveFitting=1;jiggle=2;" vertex="1" parent="1">
          <mxGeometry x="-760" y="207.5" width="90" height="120" as="geometry" />
        </mxCell>
        <mxCell id="m03nG1BBD5Hme34XasrQ-15" value="" style="shape=image;verticalLabelPosition=bottom;labelBackgroundColor=none;verticalAlign=top;aspect=fixed;imageAspect=0;image=https://upload.wikimedia.org/wikipedia/commons/thumb/2/29/Postgresql_elephant.svg/1200px-Postgresql_elephant.svg.png;rounded=1;sketch=1;curveFitting=1;jiggle=2;fillColor=#FAE5C7;strokeColor=#0F8B8D;fontColor=#143642;" vertex="1" parent="1">
          <mxGeometry x="-742.36" y="251.04" width="54.72" height="56.46" as="geometry" />
        </mxCell>
        <mxCell id="m03nG1BBD5Hme34XasrQ-19" value="" style="shape=image;verticalLabelPosition=bottom;labelBackgroundColor=none;verticalAlign=top;aspect=fixed;imageAspect=0;image=https://blog.knoldus.com/wp-content/uploads/2021/10/django-logo-big-removebg-preview.png;rounded=1;sketch=1;curveFitting=1;jiggle=2;fillColor=#FAE5C7;strokeColor=#0F8B8D;fontColor=#143642;" vertex="1" parent="1">
          <mxGeometry x="-533.6600000000001" y="233.23" width="133.66" height="83.54" as="geometry" />
        </mxCell>
        <mxCell id="m03nG1BBD5Hme34XasrQ-20" value="ADMIN PANEL" style="text;html=1;strokeColor=none;fillColor=none;align=center;verticalAlign=middle;whiteSpace=wrap;rounded=1;labelBackgroundColor=none;sketch=1;curveFitting=1;jiggle=2;fontColor=#143642;" vertex="1" parent="1">
          <mxGeometry x="-515.08" y="297.5" width="96.5" height="30" as="geometry" />
        </mxCell>
        <mxCell id="m03nG1BBD5Hme34XasrQ-39" style="edgeStyle=orthogonalEdgeStyle;rounded=1;orthogonalLoop=1;jettySize=auto;html=1;entryX=0;entryY=0;entryDx=0;entryDy=52.5;entryPerimeter=0;labelBackgroundColor=none;fontColor=default;sketch=1;curveFitting=1;jiggle=2;strokeColor=#A8201A;" edge="1" parent="1" source="m03nG1BBD5Hme34XasrQ-24" target="m03nG1BBD5Hme34XasrQ-37">
          <mxGeometry relative="1" as="geometry" />
        </mxCell>
        <mxCell id="m03nG1BBD5Hme34XasrQ-24" value="" style="shape=cylinder3;whiteSpace=wrap;html=1;boundedLbl=1;backgroundOutline=1;size=15;labelBackgroundColor=none;rounded=1;sketch=1;curveFitting=1;jiggle=2;" vertex="1" parent="1">
          <mxGeometry x="-521.5" y="380.32" width="90" height="120" as="geometry" />
        </mxCell>
        <mxCell id="m03nG1BBD5Hme34XasrQ-23" value="" style="shape=image;verticalLabelPosition=bottom;labelBackgroundColor=none;verticalAlign=top;aspect=fixed;imageAspect=0;image=https://4.bp.blogspot.com/-SeZlk6ey3Aw/XJa096EkL8I/AAAAAAAAJaE/DJQojQEZoJ8JN9bJciFeUj57xOKldzD2ACK4BGAYYCw/s1600/logo%2Belastic%2Bsearch%2Bicon.png;rounded=1;sketch=1;curveFitting=1;jiggle=2;fillColor=#FAE5C7;strokeColor=#0F8B8D;fontColor=#143642;" vertex="1" parent="1">
          <mxGeometry x="-505" y="420" width="57" height="63.98" as="geometry" />
        </mxCell>
        <mxCell id="m03nG1BBD5Hme34XasrQ-34" style="edgeStyle=orthogonalEdgeStyle;rounded=1;orthogonalLoop=1;jettySize=auto;html=1;entryX=0;entryY=0.5;entryDx=0;entryDy=0;entryPerimeter=0;labelBackgroundColor=none;fontColor=default;sketch=1;curveFitting=1;jiggle=2;strokeColor=#A8201A;" edge="1" parent="1" source="m03nG1BBD5Hme34XasrQ-25" target="m03nG1BBD5Hme34XasrQ-24">
          <mxGeometry relative="1" as="geometry" />
        </mxCell>
        <mxCell id="m03nG1BBD5Hme34XasrQ-25" value="" style="shape=parallelogram;perimeter=parallelogramPerimeter;whiteSpace=wrap;html=1;fixedSize=1;labelBackgroundColor=none;rounded=1;sketch=1;curveFitting=1;jiggle=2;" vertex="1" parent="1">
          <mxGeometry x="-730.01" y="394.98" width="120" height="90.68" as="geometry" />
        </mxCell>
        <mxCell id="m03nG1BBD5Hme34XasrQ-31" value="" style="shape=image;verticalLabelPosition=bottom;labelBackgroundColor=none;verticalAlign=top;aspect=fixed;imageAspect=0;image=data:image/png,iVBORw0KGgoAAAANSUhEUgAAANoAAADKCAIAAABMqckXAAAACXBIWXMAAA7EAAAOxAGVKw4bAAAgAElEQVR4nOx9d7xlVXn2875r7X3q7Xf6MIU2iAwIaBQLQYkkMZaf+hk1auwJxNhj/JKIPbbYiLFgTLNERVSKKCAgSBuEYWSAGaYA0+/cfu+5p+yy1vt+f+xz7r3TYCpz4Zvnd35w5tyz91l77We/611vJVXFMRzDzAAf7QEcwzFM4Rgdj2EG4Rgdj2EG4Rgdj2EG4Rgdj2EG4Rgdj2EG4Rgdj2EG4Rgdj2EG4Rgdj2EGwR7tATw1IACg055tmvZHBUha/+DWt49Jgr3g2JwcPiigu76XSS5Ki4Syz8OP4Zh0PAjsIuiQUZABgAUQKE+JSQUAIVEITR0kfEwK7APH6HjAeHwqkTQZObVks+66gB/DXkHHInr2BVUlosn3ALJ/qiopwDT9CyICgLT5TbYZabO5beqLCqUmJwXAMRm5J47R8QAgIt57ATGbjG9EBAgkgkZACgBkAIAYRAABAcRCGZxRkVtrPR8j4544RsfHwXS5CECABGCAM0VHAIpAo8nAmlAqgEMQwBQQlmFCBDlwAVqE5EAMsqAQsB4WAB3bSO6B/x90x6Y8UqVJVu32Z532ZnIDzIAHBKSK4aHaxMTE6OjoWLUxNF4dHOx/yYvOWbZ4QeDBnEBHHrzrV+HwQyVu2LBINudMHrYQhEXYYnt5dlBoz5U7UOhAqRu5oglLgJ16UfaGW/zcC0t32T9NCpCnnDb6lKSj7PFPAVjImNZHKiCGeiHDAjjAtcTecIKHt4xs2dq34dEtD2/cPDQ0tHXr1iiK4jiO49iJOAHisfnzuk9dutCrMgSatkmt3VZKMqIJI+HEq7a4FalGymNkUwq50JYvd5W7Z4WlXsw6CW3zUJgFLkMLMCXAiPNs8wC8QhVEyJ4gbT0hu12dPLV00KckHTF17zIog2BAaIlARwgANRwDVeDRHSP3rnrggYc2PLD+kW07h/oGRxqpQAIYa8JQvARBQEHI+U6IFgxJNQjCIgHCBFWICyXJSz0v1ewH8y0JxhBmD8DDOhgfh2lkqiOcooiwN0Jbrn1OuWdxee6J6JqPth62BSAPR4ZDcCiwe2zJGRA8RTfqTyk6ym7/BwBmMAjN+6cQggPqhEe2V1esunfFvffds3rNtp1DtYkah3kBmSBnglIQmtQJDHvVsFBw3gEwDGOMFy/i0zSNFSEBINDuagAzY9K6QwQSo2BS0SQgBhuB+rRRUnI719S3afRQF4Wd5d7FuTknYO6J6FwEOx9QBgu4ZSVqeXMyK5IC9BQSjACeYnRsgScXaAXSbKUjAEgVK1dv+fXtd/z27pXrtmwdq0epGpANSx35YleauFwuBOCceu9gGYAJwyRNsvOKqlPkiFSUiGzLbDOdjrvwkgkKqKo0NVIGDBHEAImSEDNCD0ugKK731zc9Orb1Xi3Nk/Lcjvmnlhadhq7FTEVoCFhDIWB3URybLp+nDiefUnTkqf8zNFbSREmJGsCqR0auv+H2W2678+EtW4fGx7hUpiBEWxlKUEmg5D0Mpd4DmX2GoQLAi4dhaKbKQQG2BoaTxBHgRA0BYMNMe8hIUQWBFURmmsxWZEZKpuwnAIK4XMAh4DHu4lqabElH7htYUyzOOrG88GQsPgPFBcAcSHnXDblrHv5UWbmfUnREZngBUoAolwKDkb/mxlv/96rr71v7iNPAM5ugEM4qpiDJzNKt47K3+hi3dW+7cgB4fEsZN52HtOseq7kEM5rqhBASi8QS8gooRMPKtr5t21bp2tt6lpxdXHAWuk9AOBdKQADi1uU+dfBUo6MCCRADqx4Z+N5PrrruN3dsHxwzubwJ8moCshy5lDxpxgAymTGHmlKKm3ScVM4AUmAa5ehArLSc7Tmyt81VdZrzcNLl0/qQIACUQCogMJJ24zvzVK+vqz/wyNjaa8vzT2lf+izMPwPShVw3OA8EBztVMxFPBTpO2gs9kAK/uP333/n+j+5avb4WKYJi0DU3TRJYAybxKQeBeNc8chrhDgheVam1+h7AUslCU3FoDMI0GyKmZPOkEBUmQTRWBPJEdT+S9o1u63tIy7cdd9p5mLcMxVlAB1AE8gDvNo5dlcppIXAzWJ7OcDrKHu940vYmIt6rCYLYezKmBlx724P/+p//ff+GTbFa4ULYU06dOEnJkqioMsiqx7SrVoCVWsuo8i7sIMYkRVQmj1AlgOtJLNkJlABNSQHhx4ofa+21p75D2I0bOvXN3UCEHNsAUREDvjrW99s1+d7FXSefjSXPRnA80AUuAGb64dNNlQIHgDWE7snbGYQZTscp7HmLmK1nKNAw5pqbV379P79/z5qNXGynQjeISTUR3d951wPbnHqo0BNl+2vpD0QIxLHWARTz+ajWGLh3m9+wumfJueGJ5yA/G4mFLYPzu4xrapQzXTRiptOxubjsNdaaE0CAX618+Cvf+Z/bVz1gS51B5yw1Nk4SkAFRJt4OOx4rgLbpQjnsYQBMgGn+sAVE0pjhitzQSjR296PFTXeVn3YeFp8NIZAFMcCZ2R8KKDOFU0rFDGbkzKZjhl2JKICCU2Bjf/UzX/3GlTfeFtsiSj0NYognZrAFcIS4iN0si9OH2WLh9MCzw4TWI0DNvRERWfXwqaZRiQrR4L39w9vad2woPP0CtC8GlcFlUIBJF0Dz8MM6qCOAmU1HAiYVIMl2D5QCQym+/f0rL/mPH8Yc+mI3wJLpZEQqHrtpe4dnJE1yZzRzaZqm4oCwGUVmmMxjHX6oEABEDtmzqUyiBITKIFZNQ6q1Y3u06fqRzffMW3Yen3oBikuAbgBCkF2dNzPZaD6z6dhC6kBMKSEFblm18e8/+dn124e50O0yQQiZtgxltpsjC2YjIrvJGtWmqnoEpONU8hfp7jseYmVKQ6RWY04q239/RW7H1tlnvwQLT4eWmdp5cp2f8XgS0JHFwxoP7IzwsS9f+uNfXOdMwOUOr8jshcrSsuHxE8BFhWcD8Z6aC7RCVbKVmvgwS+UmGMpKmU2qeX4hKLFkvmwSA2OUSoHJUyMdu3Pnzet6n/5Ce9oFCE4C2hkiUwFse2Km5DbOMDruTcsRNnXgV3es+eiXvvbQ5h1oa0eYUzIaewJ2d3U8IWBmL8KZGxACIZUjH007pUO3GAlWEoKwAqpQ75JKEAQ58pxWdq6+OhzYPvsZL8fs5aASIw+EM4Fzj4GZREfdnY5xHFMuN+rwsS9f9j+XXyaFInf2CjMUqq0AhSxwbH/2sodDbqmCrFEgSzOwzOACEpSKbTw+qV/u30p9gBtwmhL8BFDThCky3aKZD2w2F3n2c+1YZecdfTdvmvu0F9LTXgKeC3Uw5anpmnk7mxlDxz25qKBcbu322rv+8Yt33L8+3z0rFaeT++XMd3dUJpTJkd7z+1VXzGpLxwe50V9KNx2f23mSZfhsz/EEDWuaE7KF1lrBpCxRB8W1uNG3eiI3PNrzrFcgNxcKoNz8sjYtFTNHYM6YXBlthUsRAG6kTgP745vu+8jnvto/Hgel9licqiAIph7uI6Kl7QfE5TkJKjvz8XjJSCEdKsRbP3XhBefOGy+nfUdkH3MQUAaZJE2Rs46LE0mOO06edf6bUD4ZZh5QnLbiN53mMyF356gPoAUCWEDswQngAvvpb/7vRR/++FCsks/F8CYMOAiA5uQdzXEH1hMHxXypozPfVs63tRXaSg7klfAEisbHB3FYLBqfFimaHVTCibXbr/82HrkJfgd0DJpM1sYQiMyM8hgzZrEGsrQSEA3EuPAfPvurm24NO3o1tAoC2EmWmwwc3cIiBIh6BXEA8kRCEpAJmGfUTGbrTIJUDCwST9AyVU20ru+uodljO82ZL4NdAC2DDEN06uk+yuJppkxiFrjniNb1TVz0oY/cvXEbdc1Wa70quOXsan2zZeg+SmMFWqFi3CyBogxAj5bysC+oQBnCUAWroaiodQs/vO66LhcFf/A60CygDAppF0YeTcyIQQDwQBW4ff2OP//r99778NZ8R5fNhalPRBKgyTye5CIfvbCUzAWsIGVWsDIrkzLANLnNminrdZYvG7TCepSEQo3a0T/w4NX1W/4TyWZIBGUGU5ZUdLRxFKTjNJNr860HEuDG3z9y0Yc+Mlh3QXt3FKdgggjnCzLDhA4UpGAFlGm6mJwBt3MK2XiIQVm6hUBByhBv/Hh3zle33BXV4u4//iuQgMqM/NEeMfDEz6BM1Zprlpnz0Ai48tYH//K9/zDsAs2VYqdkLNjA5sQJpHmzZfLGS7YGPcFjb4GYWz+dei8EBadeAKjqTLFUkCgJyME4GA8C2IBJ2Zggb1k6zbip3D/0639DbTVQFXGZDXN3PLFXczR1x4xeEfDTG+9+/8c/F9lyyuHUn6fMkHs8M0f1ju8ePa68u/d6hoBEs9Hu6iYQAsFZnSiJjA7Fg7di1gty3LYMaJeWjBTIUaki9ET/IgMGME3vMleBH9/0u7/5h481OPBHLCTscGPKLT7drDP1fmZcCOle8y5EyWUVUK3GHTQRb1s5eOv/YGI1UGmlJgKAAh7w9ITaMY6adMzsi5ff/Pu/+YdPpDZPHOrMuIsHh5myRu8HqOlRZIggrczOozJ0/9Bt1PviXrYMtAvCrE6qPOEC8ugwIFZEwC/vevC9H/20K/ZIvt2znSG2hgMF0YzxbD0GsmI/RESGJSQJISFgwyAIJWrzIxh8YPy276HxCNBoeR7FQAjyRN6VJ1o6ZvWZPOGmVRsv+tDHIy76LG7+SY4nASMBNMMls5QPhkpWQDoHrzQ2vHkFcdh+zltsYIFAYPkJd2g/0XTM8qDX9Vfe9/HPj4oVE07TtJ4cd3Q3ZLtpme6qnmn28F1BKiBWcmpE2AGAskHcyUODG240ue7SM16G3EIgfOKzGp4Q7reCRgVIgb6a/vXf/dPWkQkNCqCjbbU5TFA6SuFFBwdt3g5MxpqpBL4xK9cYXX+DX38T/BhrBBWINi1zT8gNOpLSceoCBADEg80E8P5PfWXlQ9uD9i4VmhIkj5F8r26ff5phUCbxYmiXe8dH60l7TP2B1LMAkqX4EJQMhSRJF2/bufpnCzrnYP45QBdQaAVbZV/MbmXWKeLwD/kJkY4EuCj2vgF87AvfvuaG20zn7FSIm+U/hUgPohTEMRwiJp2crGCFqhp1BUy06+DWO3+G8Q3QevNhyhLU6IjnMByxUzcX6FZSlc1rEH73F7f9+4+vzrV3eecgImmKGRWRdeBQbamOsnubhScZsgggSiCa0yhfWT9y+09Q7wdFMImwAyWtrjlHMDTyCEtHQrZIx+AVa7d89F/+Ffl2r8jkognDJzUXn1qQphavsOLaTTUeeGDo3qvg+4H6dPM4cAR3NkeMjlk6h6rCe2BrhL/77FfHEuZCSYhVhIwRf8Sz/o40iMgYQ8SpS4/2WA4RGRstxLIClOTsSHXzb7DlVkidwYARJ81w/cmWdod/EEcSnhgIHPDpS/591brNQaktSdyTcCX7/wST9g0xVkOq9ZiB/pVXYOJRSBVgtlnxPjly8aZHlo4OVAV+8pt7vv+Tq8TmGkl6ZIs1HBUcjczawwuZLJqQ7VdIGGIlbjMNP75xdPXPwYPwExBqpTEcKfF4GOgo06LFpn/oAAE2j6UXf/YrCEsmXzJBgKcgH58KmM5IVfVpApdKNNGTc6Mbb8fGG+GGwGmrYuCRegIPlY6SVQ2eot+UDHdADPzzV77ePxFzWFJYD/NkshXvA8oiLFntm8z6La1uBpyllekur5mPbJzZFWV2t4CDfJBntlaieTwx/PsbEW0HJpC1myU+QtH4h2ux5qnnJSsTAijws+vvvuwXN1ChQziUyf6Qx/DkgREpaEPHtw7eex0wkrkkjthO5pDpyAAhi9G3MqkLKwBsreIL3/ofKnd5G7bKij3pt9K748mvOE6iJcv3yLIgKtgk3n4f1t8O1DO3zBHi5GGQjiyTlzElwFPgy5f+YP32IcmVXDpt3E+h+zeJGZdDeBhBApJSIEXXt3PNzdAxRp1xpNy2h0zHaeIQYEDTJAXjrtVb//fKa6nUqcKwpuViegrdtmb2YDPYMXVPGsf6AUMFyUQbT5ja5vrq65HuBCI+MtEOh93Qo0E+qAGX/Nf3HFklnuZ6b67Uyk8hUgJ4knoF9x/qARdoVJTR0UfvRLwF2hAkR+KnDhMdJ+urKqfAZTfec/Vv73TNPjwpkEJbSReT7MxeTy3MlAI9hxMCdmCBcqBJML6+ft+1oHjXFiGH7T4eMh2btXVaOZGESoqv/cd3ua3DMwAPBVSmEoAeT45kCUe7pR1N/3CvGUkEeeJyjFplJ6beKx9Y4aDpZ5j5aAU7Gk2KGB3ddC9GN8FXAXfYHTOHZ1KklXhWU/zgiuvu37BNqNDMfVFkd0unlRCZssq1THeZPZIURsV4b7xaMBNAwoTAMhMsk/o0DAxnDarUQ7JgZm/UmSws8vCZ2UkNaetsk+KchNSwcjORGQy1gjw0JDIAiFTVC4nQtCdQsxIlk91reAYyUsB7vgCGhBALgODKIRX8eH3tb4FhuHgv5zg0oXA4Z8QD4w7fvfwqyhUd6GAt3kxEuVzAEI0i43xAYO9DHxXh2i3FY0NIk2YbNy9kDI5AnjMpmomduwuA6WUnkM3+pGFBAKHmXeRmJzluti8gnkrDOIBGXUcbylALtcjKSZLkKRrcuAKj64H6Ls28DgcOz/6IW8/FD3527f0bNxVmL06TA45wyUSRJwZJ6hqoTZy4ZGlldGy40fBJ/Y+e+6yL//6DW7Zu3dw38Mkv/avPih+TVcfgwDU7Z8nuvc8OCgQBtboRNqnTMmOp0cy0RUwKhhg4VmdElOChlrnlrgEAKAsj+zJaH2TxWs1q5jN9F8RZc3pAhMBOQ7iyG4zX3pp79jKYTqBVcZMw3RtycPfgcBh6mssxPPDDn18juVLkUxscaOvGrBQAKwkoNRK/4S9e841//eK/fPYzczpLxqdveuNffOOb//apT33izDOWz+3qoKRuXdQWGEQ1MDX7qWVN/g6T4JmuQkA9ROEV3lmNA00CcdyqlS+wkSmOmzmjdmGF502Y3og6Eyp7FIWsp+ZNagZWz3T+7YGsnUo2q+KNpiUzMbrtPoxuAupNDeQwWfEOh5h1mqROgR9e/ds1j2wJih1sA5ccsCFAyahKEJJODP/Fn734Lf/nFa989WtvuvWW733n65f/8Luxmqtu+d2Ggcq2gdFXvvSChW389c9+5LrLvr38xPkcjQXWAMBhCqDcxefcCqYidaQulKTgq20yEUrEkgLwNnRh+/070ivvdzfvmHXv+IJNblG9dKIrL0lzPXUJPLH3KSQBefIJs2HOec9ZJbQnB6bZQEjTkBp5P1Lb8nu4EahLo11WwkOpnXV4UtYFqAKveNuH73hoCwodajlNkmZdxv2FIWVNIg7VuIkLzj7tZS99xUUf/iQFwQuffYao3rNmYypWVU9auuA973jzonk9V15x5ebNW9/79//3I5/4zN1rNiBXhAW8NDdWhw7KGiKIUQkgBLEiRiWnaYg0hDciDKcSFw1pXI3jkaJNS8a1c7yoJ7egM79syZzF89vndIdFboS+gcZ4MUc+jT0htIH69DFbaj7RkL2xKCvUBhLhSS0ZgNS4eyg4ZfFL3oXymUBba5XmQ1SVDoPuqOodmRvueui2ex8Iu2anqhoLlOhAcj0JKTOUE0rh68mmRzcvWrK4e/acSuRvvPM+a40na8NAVR94YP2FH/iHnq7O0eF+16j9xdvf0dHRBhUoWFj08KQ5E8RIYpAYlUCSIiHQxGhWlcEQJPBgiLCYIPDeiy3B5uqQWN24yua+OrYm4ZrhUq7/lEW9py0qP3vZ3IVtXSJDhlOCCAnRHoXmZx6EAHaAZDuzrAGykjWKfNSPTatwyjKEbZPfP8TV9lDpKIADxcAPr7pWckU2OQg5ddh/LjY7YIpv1J7zrGe//2/fs+6BB565/IRfXv/rSrUWlDvI55OozgFyxjdqEQcmCEvDE5HY0qvf9Jrx8fEbrv1lefZxNZdKAhg+AKm8W/PNTBwqjIpFYiWxTTq6klGjLpBMU/SY1sdYlQQWDNHQQxxbInJIw0IuUa2kteGHa/du2HTDigeWLy5d8Owlx8/pzqGWxOMFIqsOJNOW7KPWbkimuntMG4+y8N6UQmUDV/CjY4/c23nyS4BugAR86FUrDpWOCjjidX21X99+V6G7J45VQAhCkDSNgvvClDqSlbQVTfGG17z2qiuu6NvR98AD9//86l/YUnt9dOiEeT1vev1bFy9dkgvCRjX50eU///XtK4odnfVGfWBwdFZP7+xZvZWowTA2KMSJo9Du9UkgSNa7CjAg3zTLZNtnZBtzxyw57wpIQ0lCTY2KIWUCiXCrnMi0QqlgYWRlRwGjSmQAhWpgGOoJMEFOhSIKN/lk2yPVWzdsOH1px5+ec8Jp87s13Z7XcfLekFqyrRIlGS0OR1j03iZh8iqy+W99p0UjEp6MWwUDlqXl5m0FdLbOnZSsjFa2o38dFvWAJnsoHRIjD4N09MDPr/31eCMl9px138ksI2Sg+723UF52yinLTln4sY9eMzZagc119c4eHR06e/nTP/eJj/z08p/8+PKfxI3o1BNPef+73/2000/7129cWuruvf2OFS9+3nMu/dalQa7039//4eVXXlPs6Gyk+3gMdjePMQAlkDCRkDqjSYF8qElR0lCSQIRUeD+cfipKTJhmtZFW4Q0AwqGn0DMI7c66Ox4ZeuDhO89dPutVLzxpfrEjlwyzq0OOcnyJPoYldC9mxayRvJIbr+18oHTcKaDZOBz1c83HP/7xQzneAzXg4s/9W38l4lyhZRhp2VweSzlqpmZkNhpSqoyO5cLSu/76nXf/bkUKk8RxW0Bf/uLnPv35r15x5S+HY3jObdj4yBU/+9kH33NhdWx0zZoNYVi8Y8Vdv/zlL0f6t57/onN/eeNNnm3rnPv4QQBQkGk+MDCkatUXfFz0UVmToo9Djaw6AzoAB7Q+xr8YpMoOJAr2XEhMx4Obhles7WvrXbh0/qzQRyQJwbeMQIfHSr6PJWLyPzr5Sy1HuwFYCdScQJ5cv/f1C7HQeCwdi05Gbo6iQNMskAeHQ1oUVFWA39y55qFHN9tcXrIgK2qtOPupp7fcZWEYXnrJJY8+vOFVr3pFrVaLo/qf/fELH3rgvjtvuTk/az7nOyZicKmrIfjW17/x2le/IrBs2JAxY6OV/r6dS5csbW/rFK/71lmzQqdoDg+AMIkPxeV9VPBR0UclifOahuoN9PBFeAhBjICUPciEpZg7fGnpjmTul76/4l9/unKHn1fjXk9l0fAxG1kenqHsCVawMKuwStPDtB+OltS5vBWubcWWVZCEcRgMGgdw5XtdTgi47re3pSYX5grIAlFFSDRbrvbvvELGEHG9OtbW1bZgwbyRkVFrrTi/7PjjH1r9e87nDKlPnMLGyqbU+fDmbbliOV8sCCeS1t75zr/85Gc+9+//9f1GPWUO92lnJg/ymUSEOngHSQIfd3KjmxptnBasJ7hMH6dD8ykz0dSLlUmtmlBMKEaSxKgzxnrJafuJl6+MPv7D+zfH86s8P0Zb6sxeDS77/cNm6vXYyIIHsuqGPiOpAyVQgXiQARkQu32bcq0JAtY2nhjdvBoyAZ8c+gN8kFc+WZN9uJbeeOvtFBZSr9MVoP2V18RZ2wtxycv++MU//J//vH/16mt+8ctcLgdIoz7R3dUFcawwBCL26gVqwiCO00YcE1E+5Bf94blve8df//LaG9g8tmF5sjwVmE3Amqe0iDgv9VCjzI7T1PSbETqHB5S1LGh5fieRK5QdtZne01bvzH/xe3euHSnG+fkpt+mhKPRZoIYKWnVaiEiniQZWgAmiIhBYhG3OtiWmI0Jp3AUVKdZRjmxHRIWUCymFsOG+IgKIyGial6pM7EA0BESaNg7RjH2Qk05E4oWI7rzr7r6hUVMsp2lqglAJeqCPCBsiUpeec+bTr7v68i9+9GNR6kLLlvjBNRuWn3W2OO+8LwTcluNSnuORnc8759k7+raliVMxubDU1taxYMH8NI2ZCbQPX/mkR5sAMkRk4UvSKGkt0IiRNNvwgoUg03IFDxEEGLHGh9BQYT3DMzyzEntxAFwkprBgbaX38z9c+eCAiXOzPB08HVVk8sWGxYt4YbPrXVYHy2Bb12A0zY1R13h+YbXtJDf/rMbs5dWuZRPFJePB3MG0OOKCNCzv+/EgEoTwrjqkfethYjKHulofwFZmN7U29UKGv/WDn63atNNxyGRUpaWMM0CUNWAhA2JASVsqOkurnj8MwzApqTbqpZD//NWvHq7HpXJb387+Qi6/advm8/7oj5Y/45k3X/8r14jEN6LhoWc/75wPve9vP/mpz1UTDcIgrlW2bn7kgx/4wI6d2x/ZupWDQGhv2jQpqYIIMICUNClKo6CNHGILT02dqWnSkGY0EuGQ9xSU7Q5ASiysQk5JCcRE1NT6rVObcsGReXDt/SeesKijYK06kIJa2Ze66xn3AQGnsCmCmIoRlSq+YEudgTFRo2bZAqREnoJGaiqRaq6tPPu4wimnFxcsLi04rjh/XrG3tzxrTmnO3NK8ueUFC9rmzy+3tVvlWiSKnJAFccsM1CobxQz1DQ0aQU9x8TJVq5ynxx7lY0/X/kvXrIti60FjBbanuOA179w8GrmgoEIeoiRKmWnAsHqF0axZn8asArCqVxJAM1tyLmCXxmpykqazy6V3vvlNPe2l5cuXf+mSb9xyx53eUrFY+MJHLw6g9951V7VeO+m0008/4+wvfPHLt925otTRPlEdD5Emw4Nf+dpXt/cPfvlb/23bOlIve99UChOgJAVNOqRe8HVGYlSIWkriNIMcWjbFvZ5o75/vQ9dsOb0Z2M3VNnkIA8IahzoxS7Z/9h0vWJwf4mRnMeeyanfwHgo0o+u9EoiMV4Yh0xwAACAASURBVAWJqsIbG9jUOQ1ydcnFphR0HVeevSTsWoyeEu65orF9bcGQE5fAVJzN95zcOWcx5s9BfRxjAxgdjEf7RVMRrwSlQMEmXyq1d6KnB+2zQGX0DY7seJiiwTYzatIJsgHUNnMP1Ve4a7SwbOnL3oXwJKFe7LNzxOMvxQdHRxaRlPmmNf3/5+1/i3zZk/WaxVVN0jELGOOsHwKpa3UHF/FpmAucd1KpAB6snC8RDNT6ahX10XOe99wPffif3vrOC5PQJklE9dqLn/+8c5/7BzbMP7x158+uumakGufz+Vpl6LWveeXzn/uc7ds2nfMHz7ro3e8ZqLqULZm9mMEzBc6IBOTyUu/09ZxGIAfss6Lf4aLjvr6/1y1L2Q8sLw//49te2INNBR1hcSbbGmqrRiFn5mvriZXYkVUfJE7UaGdXD89bhN75sO2YoJ3V/NzFc0Zv+fdCMqBCkRdv872nPQtzT8bOoeGND9bG+oscFznJm5Q1E3ssZBOYRiqeLCiMudi9YFlh8QnIG2xYvfOR+2aVyEgDqVMTKrGqb9j2cZq34Nw3Yt4LPc/bd7W9x6fjQagpDMArpcCtd66ox0mhYFq5twBAmqmPWfg3WASAwiosyIGEmH0czWoL3/rOi2qViW3btg2OjGza1tc/Uiv0dCQ5mjV/fn9fn0QRpWSZJVe+4e77rr31DiISGApyYb5QrVVe+ofPf+urX/lf/3vZwqVLfvCTK4YqDcqXIft0TrLCwhWlUdSEs+g95ZmWr5Nw+6r++qXXrP3Aq07MuxRxFUg9K6mwCBTwBFjH5Cgfm1LK5VLvgq5Zc9HTAeMxuAPr1jSG+qtpWDrx+RiK0vpoYHXUBT1zji+efBqSur/r+tpQfylAd5HStGFZmDXrRKuSijoGl0IDFY+0iNhtu3twy8rOBUuDk5fPXXDy0Kq7CrKtGCSZHCPWQBtB2u+2rbGzX2CYDsXec2B01BbpsiJWqx5Ym2trE6jfNcqQsudYU6MSqAOQUigIFIAyEXwy8bI/+bNnPG3ZirtXPv8FLygX8wuXnPjX7/3Q9r5+ZrzxLW/77qXfnhgdPPW0p8+ev3DFqvsoCGy53XtxSaRpAmsDcX94zh/c9OvrfvS9H1B7l2pS7J2VUGaI3QvDSGHU5dTlJQo1NtqqJ6wzKwLRUZhrX3TTfetOO67w4uVdXXAGqYBBrMxQ6zXwxAhssaurOHsR2mdDDOr16oaHJkYHtDGel3qbj0tULPYU6zu3O5OrCx134nIcf0r64JrqwLaiG24vKFyCxIVZESjNRAYy0zdDDBEIVlUlNYbzJhjbsUFHR2ef/Ae9f3hB8rvrxkd3FI1YSkkRqLNJpT60vR3JIdoeD2YTpwAZbBmMH3hog1MDYm2JRnUeokEuFxDqw4NLli64+MPvC/K59//Tp8YmamRLaSJefbncce55f/SRj39048ZNFATw7pJLvrZ04XF9fX0Igu9f9sO3vf3Nz1x+6llnngGgf2DoE5/5fDWmQrHwspf/6dlnPeP7l/3s1uuvW3n37849//x8T2/Y0VlP48h52XdXHobk1RUkLUpqZ1Kx8d0sUwSux1F7ce73rlt/3Lxzn9lbpcYQhwWnuYg6fNgWtM0uLTwOnQbJBIb78ND6xugoqRh2nYAXsdY4mHxbB4o0PNjXoK6Tl52E+Qtqt90cje/ozBOxgxMg68ycOcYIANRAm+ZK8tQymROEmF2nFe8Gh++9pmfpaeGzzo9W3l0ZXtfOaQgmE7bnzPDEcPvECLqPA+xBW2wO8rDYY+PDmwdGxnPlDk8yGTgdBGGYy6Vx7KLGO976pm9+7au//NWv7rrrrm9e8qXOUhiPDZm0gbHh88993vDoxMOb+jvnLOzonqMIR0fHF89fSM6Xim1XXXHVj37yo1m9ne9/79++9tUvn9NZOGHBrLG+zX/x56/64wv+6P777vunD//d6974hle9/vWVNI2gDS+e9qnpZSCVUJK8j6w6q8IqwAF4IJ5IBEGgtlTBnB/86vdV6kqDjkiL+a7j2k49s/Oc80onnIy0UVm7ZmDlncMPrUrGdxRkLC8jBT+Wl0opdNC0liQ89ziMVgeHa3OXnIHjl4/edrt19Z4iG62zpC2bl0x6alvzMN0n1PynEAgSaJKXqLugY1sfwrqH2s9+Lgqz61oG5dGIDGLWhqv2A9GhON8PRjoKEBqsXL06SVScb8VxAAAbTqI4MPbL//I5Vx9/+0Xv2do3APE7B6vf/fdLP/KP/1ivTpy1/Dlv+MvXXfyZryiH9YYYy7C5HdsHFs2Z78YmkraOfFvHZZdd9uA9K7516dd+9pPL7r77zre/+fXtnW0vPO+573r/32/e+OiDDz/6wQ994Gv/8Z3rbrnddnalabPJ3vTYk11AbNXl0MgjnownnSovpvu0Lx6SHjR5ksmcm/0Ds4098uVZD2576PqVOy44e7EkjfKZz8XOgcG7bpL6sNUob9HF3uZUJYXxEFESTxBNJShYDtHZi+KSpz9rTm7pgnU3X12sDrfnnLqEmJolGKalHDSrM+ikF6MZNzKZm9GKA2J1WjQY27SqU+Le575kx+23FqPNYZgQJ+zHG8Ob2o47CxQedGjOAR02FUhYVzyw7hEwT98eKiFOYkOk8GEY/tvXvrNlRx/n28Iw/5MrrxkZHv78v3xu26ZHJ0ZG/vu/f7D6gfVBsSsIAucSmHD1Aw998dPvr8d/992f/7SRNj77+c+d+fSTv3Xpt17xkpfO6uy4Z+XKl770z667/oYtOwdKc+fdtWr1q17/xjSXQ67opnNm7wZHCdWFGuUkMep4WnQjmk8S7dWXsyd/hA4402pfJJR9M11EBKh7DsPun928/vTTnt6TI6x/CPOXVqq1+QXHUTX0IDAMyECdZisqAC+icD7F2IOrir1pbvGpSCvLTj8VW9WP7BgdTQ3ZYo4YCcgBjgAFe3gDmhb9KZhe+rAZJswAOAiMc22hDj6yZlbvCfNPfcbYPTsMwEZY47SyHX4MtnzQ0T0HkpzQvNmSgnfG+NM3vu/B/jEEIYdWVVUE4qHCRFIZ/9v3vbdeG/nPb38n3zvXeWYgqU60t5WTWiOq1U1YCAptbAMRUfUAWJJFc3tf+5pXnn7m6cVS/vZbf/tv3/j6RL0Rgr/w8YvTKP7wxz7LpTbOlzw3ixH67B60zHrTg/aa06pCCqtJm4/KGuVdI9SWLJ8WeEv7DNdtKcQtQSLN1WtfBzzOIqXTBFL263sndysqL5SEqzv+5MzuD7xmcWN40/xnv8oNDkSbbyvqBCsAEU5AwtKUKUKZBT9Lkbb1mMQWwo7u9p55mL8UYRsaLt22tbJ9k5ExpuFC6BEnxpqsZVjLL4Vmkm5rnLtZSTPeJ1QcQ8fcF7xQ191X6d9cpmqkpUrnqfP+5CKETwd17+3CHl8pOsAAMwXIe/CGgejS/708MgbGaJJCBGzIGIi3gRXvi6X8c5/3nF/feKMJC2nqvAJhPvUeQSicUxuQNch8p6oKeNKhseFbfnvzvatW3fKbmy//+RU2VxJbsLn8db+48k1/+dbu+Yt/d/d9VAg9sSMjZHUy+bSJ1vy1wrRIlVRykhSlVtDUqGvVIcC0UC4QEZSx+9kwtVa3Vq7M9seaGc5pl1fTFTT9tZdaGZi2avO+1m8lkAoBIJvvGBnaduoC01kyjQbaT3t6fct6Jt90YZInaEvJy7pggqEGYuHyHFuKtV6tV8Yr2/vSodG8Cc2c+cUlS/LdnUa1kfqcseo9DJNO7xumAE1plVPjzz5v1lhVdXnvaNFJE0Mj1jWYODH58nEnI38cqLS3C3t8feVAtHid+u/adesr1YnAWIjAwljkmYqgIluTCgyvWrVq7ux5XR09ca3OxgIIAiuaqlHkgZxJWWK4lJxj59h5I1QomI7uzf3Dq9c/3NYzx6k1nIujdO7ChSYXXn3tr4K2ks86iPJjX1qWpCcWCCGhigUYQpPO6JY/OnujYCVW2q1oLWsrpXBSGWWAlYVa35/+2v3YPV7ThE0rjmufELASHMMFdqCu1969RcuLayObMbCm8xlnDkrOsQWm1tA9QURsgpyxxUDbqNEpw7nKhsraX1dX/NStvA6DO+2Jz2k/97XaNjcSC7YH6p036jpMMrhpHUxb27yTEhiQ07iKsaFD2coc4KaSm0/3hocfVTKAwDskqW80kvHh+sjOpDJsXQP16guf/wLylCY+zBcBgI3zKQyJOGLTvINNnVpAAlXx3ntJhbjQ3kjgyebCko/T173u9es2rt+xc4cJg6kS1o+XT00AqwTiAk2tyr6jzvZ37p6Y+soEoFXQwhM7YirNuufh2iODrpjnnWtXomdOYdbC2FihrGLJ3uMjVTVrJ8hEBmlIUYFr7UG9HDQkGhjYseW+FffB5Wy+lBWUM8089wOBi/KGJrZuyffO1cy4k8aoVg4lde7Ad0CihvHw5i1kDDUZRYvmz3v3hW/p27RxaLD//t/ff/wJz3nbG97wV+99XyNJTSGU1FOg6mJICmPYk/ew1ngRFVhrlJkse6jGMWwocWpKJXiZaNTmL1r0nOc85/3vf5+1gcjk3lkg2fo4GTM2bSqFGTAgoy6UJJQkhGdIaDlqNKJGVCoV03S6e9BBmYgyF7A1BsbU67UwDMPQGmOSNAnIVioVY9jaQDVb3Jt19JpVy1q0zs6pqoB4iIoWikXDDJAXcXHUaNSLpZJLvTFho94IwyAIw2BalQRiBVEWsOhgBIWRdNYNKx55+svnuNpgfeOmnuXP2nnTZktBweZ8rWbCqUvf1eFJU0FMU5MTWZgcJ/Pm9EDdyODWMjnjmOTAyyWEBcQ6NrC57YT5bW1d0fiogdSG+0p7SMf9T0g7IDo24zhiYFvfTuc8uaQUBvWxibe/4T0hURRFzzjjrD889/x5cxf+00c/tnNgyBbLQgZw8D4XBEk9InG+VrVhoRQWOTBxHEf1GpjCQtnFSVAup6lDEKapEESd7+3tzeVy9WotMIFzHuxBCmKAIHsLSmwazwSAUQk0DcQZiFFJ6o2ujrYP//Onjz/++Om3TWXKy8rMGb129O/8zOc/t7Ovz4u3xtZrtZf/2Uvf8Y53EJHzDgDvJU5AAEhWl0LEGpu69Itf+fKq3682YQjAOwfgox+5+JxzzvHOGxs8/Mimr3zlK9t37MjoyC2/fys3gFnZ5tqEcM+ah4f+sKuDTd+mjSd0d89ddsb21XfPycpg78vVuY8Wgmw0ieuz5/TowHarYqG0/7HSu15uYMikVYwNcVtXUqlYFknqh7JYH6B0VIC5XsfQyLDJ50SkUR172tK5y09a9Ma3/nUjFSFrwjwxsTUolz0ZDwUzIORFo2jB/DmvevMrzjzjGWEYEDETjYyOrFix4vKfXpHjMBCXeg8bQB3ZIAzyq1f+7nd33HnRO/7qE//8pcKseWmcwAQwBOasWMk+xskMb6GhSthsWS/q9f++/4N/cv75qmLNVLD09LBpDxigHskpxy+854Lzv3nppd2dnSqSywUXXvRXixcuUA9rQdhX9qyKKgBL7FRC4ne+5S/f+bfvtrkQQOrSZ5555l+8/s8t4AEFTliy4N577/2P//iPfH7SMjJp/LMkLOLZArY0MopV64b/9FmzqDYy8uDd3X/wJ+GWkaj6SNHsRd9oFk9rDlFIswpBDAWUUtZcIY+u8tjqR3MCFistm9eBQXxggiCuYnwEvXPqW7d1GOfrE63FmluXcwA4IDoKlMFUT9JKI2LmMAzr9cprXv7Su++4A+C2rt6aEydKxjgSOIWmYDZs2CVRo/62t7z15S97ycoVK773ve9u2bxFVUvl8uJFi84777xXv+rVX/rqJXfcs8rkyqJQiIhLIYWe7m/913/9+9e/+c6L/mbt+oe90f6R0b7B4ThNpVk+S7F7SA5n1SNYxagzmjJAilwQnn7achKxxkw/YDqj1SsZyueYgO7OjsAQM0dRo5Qv5GxgCDbAblH/0xI5mzEFADyURL1BsVgQESWQQrwU8/nJGc/EeKmwVxMdZ8ZnkTRJKB8GqSnduXrLC85aWraj0cQA+gZnnfyMkZXbc9ZDXcvyZbPQXaOZTdFn1v4soiXTngVcTbRrwRz4uq8OWG2lsR5EDQL1Bj7PBlED849PiBmcJFnVHj24yqsHQEclZLGKG/sGh0fHbHlWnCaltrYXnf+iv3vf36mxnliMz6qbgIiM1SQNYIxLKYo+9bGL5y454a/e86HhgcGpjcVA5f6Ht1153S0veP5zPvGRf/jmt7/1k6tuCHvmpGmqcMKcwAxUoy9+8zuve/VrzjrrLJ/GC5cuvf62O75xySVBT3eaxM0le8qYJ1BSJSZnOCX2BMkciEEuEMAYQypMPFk6ZXpAVEvzgxJ8lJATF6eBDQwH1uaImj2iVaeU1WlChZAREaQgJ2oMvFKQK0BZ1ZssV6D1i140YBK3RzGjZvU6MISNFdUoSUuFrocGBreM4aQSlUPqX3fvnPMuaJ+9sDa8oyMUiSMxgWnrFdMzOjoeykiRY9Y6REQ9E1lr4AFRT9ZTG2YvQf9mrW43eQ84nuzD+rgicpeilQ5CAYdJpRIqFfLtkNFGrdo1NIA5SyAeZjq79kv4HgAdiQgED4xUKpO2D0/23y79r0//y5c/+E8fu3/9xnxXZxQnYAuFeoEXIqT1xgffdWF7ufSWt74tLLfZ/JRRKk3TfD4fBMEd96x805v/8jvf+c7m/rHf3XOvKbdltmAPC5v/7R2/u+XGWwphIC5ZdurT/uZ974OB+BQAmPaQjmAVA2fUPUaNf1UYQgKoR6sBCTE3t0kBoM6pl1wQOJU4jqvVCTu7IxUQwQBQJImEuV1mWQWGqWnFZnKqmaI5vWJvxkVVWBFik/11WrXI5k55cv/ORDAmlbCq7VtH3IltBaSVvFb1wZV2+dmNm8eD+kgxzA/Hftapp+QWPm3uyDgq/Y2+jfX6SNoYNyqFgEnAmgBeiSVsR/ssfWBdRw508D0QsqXJhZSL0xhsmS1ULAviOuBID8ZPeEAKQzNOfnBwaPJwT/ayq2744te//eUv/PNzn7k8qoyzYbgEmtnG2UWNk05Y+tznv+AfL/5EoVQiMllGQvYyQeBUKrVqrtC2fXD8C1++5EPvuaicJ24WijUAGVsgY8vd3bn2NlPqeHTrtu6cXXbcPEniyR3o7jNFaZOO+1iAvPOqcMDERDRWq47UaiO12kitOjRRr0RJpRat27TtV7++MV8sJc4BiKLoqquuGq2l45XGWCUarkTD4/XEN3v+NM+pGK1UJqrRRLUxXq2PV+sTE7Wrrr5mX2OY9AbRHoFIex6ibGLJb9w2DM6T+pAmRvs3oZrOPeE078Ur+VwvehYO3fgrDPfhhOWFU8/rfO6rZy3/M551xrjOjtHmEEBSL0nX/IXgcGR0ODCZSdXuGjmxn2AQQ4lYnUuacdfiSVPEFWgKVr/L8r9fSuQBUbjZ/mB8fGzyIwWXZs+5/je/HR3c+qlPf/IDH/nkmofWhx2dSZqAERqTjI685U1v/vGPL6/WG7atgwwnSTI53S5JTWANcyJS6Jr7m9/e+cqXXvCyC87/8bU3o1DOts+qIGOT1CeiuXww0d+3Yd2Dzzzr9HW/uB5Bnoh2d3OSUFNrFAKy+p5Mu7jXjTWp1zUPrrvoXe9WO/V5EATe+yAIhkdH4zgOwyCz5pA1//O97111zS/UizWGiEeHB9/xtre8+10XTs236Kc/89nbbrutWG6PXRrkwlqtNlGrsQ2mEugfTz/LYvX29NcobF3CncN1Ml0QZWqExg4/tLrn7GeH22aN1aPywkXwaIwPyFiB+2avXr1mXm/brN7uztOWQ5Zh+6MY7ZsYo5jzvd29unNHAK9JjKmsrgPcDmcx/2y8EjFDVeHhU2jqkrolB1KV5i52/896YBJVVEE0ODismnngSEkT58rdnXffdffatWuPXzR/7bp13nuIAbxIOnve7OMWzv/qJV/lXNGTzdLyJwdIoW0WCVBmsjD2lptufNGLX/TjX93IICFAvaQJYJhDHzekPrrsxKVPf8YZA/UqyEBbxp5J0yuBBAEkVB/CGxATIfPvqVprDMF7FUhg2Hs/NjZKYTDJVFUNgsA5B6YgX8i27uI1yIUQHZ+oZI1kmM14vToR1QmZsVlVNTAcRclYpSoceC+NKBFCrlA0JvDOMxGDsnRgzbTP1i/u18yDg2L3tv4dtfrsDmvFe6sRKg9jSzl35vPX3XzX6cedLNt35DllX0WonZiwfY9UttUpVyx2zTILTsCSp7V5m9vZj945O+/8dZdRZttqrnJwphlWsChMEMIa9h7qfRpHcaWMBJo/CKv2wSzw6a5FcLx453yhvZjLBQP9A0EQpl6hMNb6tLb4uBPq9YnR8XHOFxMlUQWm7GTTb4VXCoql+x9c+/JXvtIa49WTqkIosAEZJNJZLv7N2y4874XnfPfHP7r86qubT7bK9M01ZdEtcBZJs3j9VKnoKZnDzOJh2eRyOQpzftLdTRTHsQ0DZnbTvAuqCoK1gap6KDGTMWSMn3ZSaeVgZC4+ob1nkHHTny37qK4ke91SKFg5V01orB7P68gxEBiGdZWNq9sXn7bsjGchCAe2PVpgn9ZGg9CWAyqnVUPVRlyvDtWrA0PednTPP6G8cAGGtwTpmFUH0NRj0QyMPzBeKjhS21bqQGOCJTHIsroTkINKSxthTGmoj6MSHJgZnIgUiKJo+qcMF430n/+CZ5667ORtA+MpF1QIEIhCtL1cSJNIiSVL5vQOZu8mBZ9GzKg0Eg7zbK3zKZFlQJwQSU97+RuXXLLq9ytf9+Z3jE5UTC7PxgiAvUiXrB2zWJHJ4BSe5rEgpjRNgyBo1Oujo2Mc5qS1T/bO2SAolgPnHBvC1LrZ9LVkgRSepwJeiDAZ8jAZwdrctiuEYJCJ6N0xOZ69/XFv+RVkJqJ0qBJpT8nH6hr1XAEamKHVq3rPewkefZjro+VCEKdp4DRX6vIRW6W8gVIacoVM2ti+c3Q71CdFEsuExDUbTRywQaY5SKeI1bZ39aI+YSQODAcIvMSAA8Hs6g46zKlb0jRhIEmSrAqFqBp1Jx+/+KK3X9xTCj72qc/sGByhfAdcShDvojDgRq3GpIlLAyayQOpgw6lojKmnEyYI0/qYLebFi2VOUwFS5qBULNRGR44/ZelQ/+ZPXHxxYfaccves8WqF9pE/yRAjwiqTfptmZhJhUrnOvCDz5s+/8MILTTDlZSNjVq1adc+qe3OFfLaM7ivGUfdWFGB6Y2Fp5qFOLcf7WpelFUsje9vETP0iUxT70Zp33EnSCIMwjieCQmFs6NHedfdgYjSPmlEXJ74YNWyhkIKMCCk5iQuloroJQzEANiBlCDczZZta7YF3nVKvqqmGKHahMmhdnXIKQF0KdbtSfH/PfCB0FIBBwNjY2KRn9g2ve8Or/+TFl/3of3969ZWOLExBXQpiVZgw7+Lqth07CqVSvr2YwIukKBh4gGyWeKyZcCOAoEwgXrJwXlqbcFHD2iL+H3XvHWdHVtyLf6vO6e4bJ49mlLUKmxMbYJfsDV6SMSxhyfiR8RL8AwNOYB4OD8dnHJ4DGNtgE55tbLCNeR+Cl7C7wAZtVtjVSlqtsibe2N3nVL0/uu+dO9KMpFFY3q8+9yON7uj2Ped0dZ06Vd/6Fth732w1xcVjQ+XJw3ttpaphcaZdRzFSrz3thvK/ScWomLnEgACgnPu/W3qWgdp45crxX/zAe7PHNgdAEpqxf92b3/jojh1hIQLAeZFudnkmBfV09+ieSIWEs0pqEu0FCy5uFWSpDZWVbVA6PJ04jSIiC6WgIL49Frj2lm8zUAxEvAvCanviSGHFeH2nhGy8BxmbJg6UIcCFlBmUxbdOQFGWjbM38EQO3UfUiOUooBFUV8xuvqMvUKiwIk591mzBQ81JBTPn5NTLRIwx8HLxhRf+2Z/8yZf+4cvEIYXFbMIZR4yAlcyhyZnZRvOap10m7RqrW5RKShEaQty47vrrH9m6TWCVAyKjQuVCRUHjq1aOrVrp4rpPWxyGRGaxGpcO7iaH4lLucrMSPPyxJ1zu/MmACqoFMzg46NzxGpFwjzounszISBBPYB2PMrFCi18PUDFxAoFlIiAj6nUFqRd01qDJSBgSsNYn9iOgoFjRoBREZWbWDqQ3RyRJ5m13iGJOJMfYbM7gmI22G1y2Eo3YqgAOqjnOCDg11TpFdfTOW2vh0kceeeSiiy4y1pSiIrmUVKAuc11VlbjYTug73/7eW295WdScDJxD6joMeiw014qL1Ce1iVWrxi678qp//rdveI48Qk8McK3RLPUPf/kb30nD8Pd+97/b9pTMzmq65MMgEWc+3FHJq7xUlyCEwCAFyBgTBPOjcRmg4QRfsXCRAxFl6fmTTJr1dPjqbd6oqiK+3W4fc50usp1BFEiM6T2YOtC37rymL3li0pTYM5wRGJlfqpYjbI+nlKxdsL0ADLUsDA0TLaY2smvWNvfuJPZZlYdwcKwPc/JxzVNUx2KpmCQJouiRRx46/9wN5NuzE/vj2kwgzqhD9qx4T0SF6uC//PNXfeLf9/Pvjg8fqlgTiGPtPJd5WzUxKjI79Ylf/9g3v33b7r2HPOW6CKYgimDtRL39tre+OwqCv/+bzw72V+HipTYh7HadPtZKZScPBVLAKYgoTZfWE+QE6y0qojiua3hCyYadLNAhhefYrRSStkvakJ3bsGKdM1WAveQKzWeu85wnOxGb4XXng9Opg7sILqMNUNHOHE9lqksYXPcuitc09cw2sNFDD9y/Yrj84fe89ZafufGVL7z+ios2ViNLkgaGCQ4kXqQ4OPjhj3/yuhf87Af+v/clkwe1Pmt8AomhMShl8lqbjlT+5M//7PDhib/47OdtZQBsoeSVlCmVdjOuE1FQ6X/frR96+JHHfue3F5VyegAAIABJREFU/jtLzIS8s1rPKydVZOrkh+eEepCz2VwMzc0/Q9x7j9179m/Ztt1G4bHNA48HmV78NmeOAc/XxVNQCuqI9HAuKkHmalIBwDKVjHONaRyaHr30apdoRAG022NwyUXQwg7sOnaUVBKVJFVgaB3OfZrfeX8/TwXaBoQ0YUmjnqPhUmVpOevM5QjC/PuEIODP/O3fX3vlpVetWB0UK6PLV+3at+9Dv/pRjiypV1UldsBkPX7LO9/zWx/70Kf/8i8+87kvPLL98almTaBwrn945MabXv7qV77q/s13/cYnfsMOjCAodMKzMEzMEAHIhBz6St/k9OzUlq0nGGt2e5R7n9EeH06gYLIPbdn6G7/9u2Rs9/hsjN26Y/tMs1EslyTVExizk7Y0XTpMdHLWpxZ3zoIJ86x7Rr4/VwWWQTyEyB3e/vDoc68vjW9qHtjB1DSanPJmKNRhLLIqakBRLbXLz78URw4d2vvo8gpp3YEA8VCfn9YXRKOeSJagjpbZCUAozoHz4NT863/96F//87vGMESJ9fP/8Lnrr3ved77/XYQhiEXZCJuCnZit/fwHP/LiF9745re8uVwoTk9ONer1waHBSqVy4NChT/7eb9394/vs4JgQGyKGh3pSQDWuz4AU1qTg4cG+q695xod++aPGlvyi0134/bm4I3EW6kvi+N5776Uw7PqFQrCFyIaFdurCo6Fkpy7HWGoAYF20eOvkRQhKFgQjWbCXM1wwQwrJIbf5DnvZDUkSmdrWQKdzJMCpPAvdrJVwsXpo1o6dexmqxUN3fKdaUBc3Oct9wfdePIO9LUknl5iVEWWmILRds+GZTWUw6jMsnknjZu0PPvXH7/+Fd2++767p2GUPiGdJ23GhUGKxX/3Pb/37N7+9ctnoxtXrqqXKvoP79+4/eHDiSGqYyhUHg1QEiSFiFaPCcO9817umZia379795JNPvuTGm3bu3rVv3/5i/8BJOnfaGzvsbrsZ558Jq9WqGivErFBVrwomgZrTiDmceDydnxkwgo4nfUKmVlYVhqOcZHGuPLc3Bpp1IiJ1ZXL1w0+WHts6cOXTD39vL6uE3Aw0OTq4c5wdgLppFUBZiBOEtTZG1m7Exo2NO26z8VS5rM55JYAMCJqfrOdW76TC3x1ZCt5R8lYCA5WiqgeEiVL1gDSTmJiDMPSl0t2b7w2tuXDTubff9bCy0QBEysVyImLUBmG/I7/ncH3/gfsBgIxkkKfskSZGZAER3y4aTWtHPvXHn0oddjwRXXXV08vV6qoVo7/0K79uisYhAZbgo0inPRkDAs6NFVMriaOC0ay2mRAGQbPVMtY6l3JoszSX8850kWDIbkznsovCwnvWrZsTnAf6ZQDew4LYi4UKQYmy/yMiGfQOfk5ByRMpRvsrIVKiBOqUwMqEDLgk6DZMzVoVCfpCN7Pz9v6wPnrDyybv+H594pGhkAMlEHvvwEQ9O2r22bwTS25HFZrVvBoUiqkzhxJavv5cc+nls7d9y7Yn+imRVlYunEf+PfFgdQQSgnLY68nfIyxNHTsueX+1nJ1qO1QKBkxK6n3qZ6Ze8oqXHzhw8I47fhSWRj0CgWdjNQOsMifeCxmAsr5VngLNUZTZYuR/B0HQakx98uMfbdem3/uhj7ItKsFGYbFcarRbJgr94s90XrRKuR1aFGOmaLXa9ZlZl87dc2ONd15EisViYEzsnGEOsqqxeWvRYwD0xEk27US8ezWy3UyKpdAnaavRhDFK8FmolAhAFEUuTqydd4NCpv5ywSBhzUwjg4SFuxaO860gC/YLpFFiN/XoPdXUDj3zef5+ObxrWzWygXphsIqhjAR2TidViCGgOQioapBSYaaONCysefrTMTQ4dds3tT5RRstogp5YqRAcWROWwEFWDZcj0E86Erm0zZpEydDQUA/HgBLAYMPS1rhVLtBrf+bFf/BHnxKO1AQiIGSEYQSQV1UCmAH18AAkj1ULK4RYNQf3J+34gvMv2rDxgte9/jW2WDVhmYiVMNtIwIFqIOJhFtholKDKnjjHDfUeZolFVQAics6ZIBgaGrzxxhsgvndLUdUwKByaOPLIjker/X1xHPfU8J/KDp7B9JmODjAVyyEI69atue7659sw1E52MTspbtu6fWJikkzYnQTBGUqHB0oMBxIoHweuJgQUKE2TMLCDrJOP3xVMHaxee/34mqfNbrmvPrmvEsSsDUhCgFAWQOiZXudx98QtKtWpGq3ZOHrJxZjZc/D//GvR+LLxxvUiaToHR2UUyuAADh11XIIsyTrm+byBvj6dM42AwoAULGl68yteWps6fO/td1TGV7d8wkSapj5OjLGwzDbwPOe/KwHkochxssSqnTUh3vPEnmaruXx89cFamsAym8SlHJVERcAZ4HxByW6qI2R3UgjmmOLoIAhSr+vXr/3zP/9To+C5SHIO5207fdut7/7xvZtL5ZJ38wIrenJ+18mtKV5+88tf8eqbQegWS2Q/bN2+421ve0eaqwUThDS1lPaVjMVJta53Iia0mngycV/A9dk9T37rP1ede0nf067om1njdm+rTx/OmiIKmJWZ8kiCqoJZVbP6m76R5ZWNF6Ey2tjycGPPA/2Bt9Ji53pm390oWIkRlaBGlTp5+CXIUgI9loyCgKH+AWLyziuzMSypEwclMlH1x/c/+JKffelr3vD6L/3jP0X9A3Gt8bSLz/vge95bq9U+9+Uv3fXgVoQRM4tmushEqnErjZvWBC71tlwVMkRkAtOqTcdxvHr16p33bgkrpTRNyQTS2eXn5nmMRkjWHMaTh1IPAEKcC4wBIF6MNcaQB5iy4tDOpTSnqgwMXXvts267/c4gLHQROd0HifIUSxZ2ATo+khdhOpr2SEW9ChkT2ADdwsWOaQ+CPCtieiwwAxdu2rBy+YrHduwslMqpVyKFb/WX7VB/JH7K6AlOCKywRPDCbKFq2JW5XhA/s/VQtHegsGK1vfzpA85gul6bmkrqtTRuGO8BKFiIg2KpVBmojCzDQAVJHTu3zez7lpHWgFGjSYeMZV7hrPdCbMNCBZUBkCV7lGd/UhvLEtSRO17CypUrTRDE6gnsk4Q6aUohbH/8iV/8pV/9sz/6w/6B6hf/8Z9+7RO/dsWFF375i19wafrLv/iLTxw5/Csf/83ZdkJsoVYliSyNjY9dcP6myy+9ZMXYit/87d+dqDeJbcmG03Fr+8MPXXDeph/c+/DJDzJzzpxqShopM80hc1U1TRJVGHtsBCczyXO6rQRVNWyyEthe39FYE9iAuaOL3a8GrLHOe+qWeB0jWZ+yY+9M7ztJ4iiwBFhiVpAyiTJ7wPX12WrRIGmCRE7Ca81rsiCkLgAC8iGZdj0+8uhsuuOJ8vCqvmWrqqtXVy3y7kbZWIjBBkmaTtZmdz/qJveWpVFBw2ji52lgVoII5EdDEqUoKsIUsuPEIvM7niyRjFkBRX9/f19fX6PlcpuRmSsVJeFCtOfgobe8/W1/9qk/eM2rb/76f/zn6//bH9YbMYAvf+3rf/fZv7h4w5o779tKkYUaTfXKC8/7jV//lfsf3nLf/Zu12fj0H//+69/yjnarNdv01WK0ad26mXqDVCCeISBS9PTs6Z1vbytgghIrwatmj5DpLF5mL0UkV6ZsUj07ShfuJoANQ+eTOGkZY5nmNNg7L16890Ewb/UYcN5ZYzSvol5A4jgGEKcu6n72mP8YhhZ5tHzeTqeSrBofLVilOMVRMVGad53smex2V+1BjikgEbmInfhpPTRb3/8wB4YMmSBkG+bBB5V6o+7TBEDZGiupDSzUOEeUr5tIdnjPjlMQwDAbl0pUKCEserKmxx+fp8PHlSXhHXN0YqXEIyNDB/YcBgRBkIN0cnp6orBwpFZ/zy/84uhA/7bHdnBxyA4M+zT2jZkd27ddfO6GH/74viCIBNDEvfrlN3/205/9+y9/qVjtb9dnPvIR+9d/9ZfveNfPP/95z37Lz7358e1b/tdn/kaJQSIkpJqVOWWhtfmTzVdfMnAGOFV2IFYJOvrbaDZ+9KO7N61dk1VwaM+8utLdjgXYu2+vqhaLxXa7zT00AV58pVyZnpa9e/f1cAbBAu0kDqMo9Y6PKShTVSF+fMeuLY/u2rhxnZsfIeq9VSoQ0Vq7PTE1kzejYGU4n86sWjYOTbgTMzj6Dp0oi5/91qggaRoARKH3qoSQxFHss2OmkErVMlmBqqQpR6VsTPND+XkwsmMdWcApEIYVwNKSsZO5LPFkTQBQCLFi2eiDjz5B1T4i0pyQKQNPAwioUJ2KZfrgBFWHUg5T7wtB5IBdOx5ff85aqc2GYdSK07Vr1o6uXPO1b/92cXgMJigUq5/8gz9+z3vf++3vfP7++w5/4pO/d8/m+0yppIVCInnONPfscoxJ5p0kWZgt6yKYFVALQm8KqZeCpKRO1XugWCh+8nd+b+fuXReef0GGHT72jmacJ+VSedfuXV/9138bHhp1qVgzzw0KDSft5tDA4G3f++4n/+cfn7dpk6paa3/447t/eM/dUaGk3RLBHEMOJlJCFEWTtdqt7//A61//2lK5lMUyj4X3qioz/+D22/ccPFgql0U9Efl4eiRsnr+6z+hhhTUqgMwLZOYuKCtlfZ66uNqO3uSzZQAwmqPVAyICRIk0yiFnAAHiFCAitgEyrB0bQ9Cc2iDr1RRAka05iESp7sx4ZRnm6sFyENDZCYN3oIIMWr1yOaAMcZ0K4t5HXWEdg1SUAApAaLuEw+j+bVtf8aqbX/HqV8zWWrv37L35llvuffjh2Vrb9pV91oCjb+Cv/+7zt99+55YtW9rOc7XP65wZ0aOdpfl7WQ8/o8KmVLAkXl3QJZoybKz567/5W2aTcfF0EoNzy5Vh3NmwS9PBkcETrslffuavwjDM4D+BDUrlslPPao7NCWZORiEq7T94+Ld/53e7Oez5GysAZKXZURQVS6X8LRKDZO2oXT8aGHGdnrTC86Bi0iHrOZayZyF9mD9AVuhitnXOf0H3TmSKmJ+7FDDwygj6URnqtGPqlZNNzSzFOpJ21eGCTett1vJpIRvTIwzyUGMKkdd0y54n/vN733/2ddcFQZGtHRwe/ZWPfYyLBSizNV492KYi92/dGkYRjBdmGAO3UGk6SV4QxJmdyBclqz8SRcJhICJoA07IcxZJsnZ4eASA976LN+tFQmQxQi8S9vcLTpyGHBkZabfahciqahRFAJwKdcmDjvELvXdRFGXeoc8Tg9nSzv2fPKBGlMEAsjcN2hvHwyrP+lYtJCNQ1k7YlmWpqeEzL6peCVEfBsfm60Nv0ufMhcFlbm2FYNaOjwTwTjyksx10B9ZZYs23CYC8TxXWtjT9s8/8NVK2HHJgvJIoFcuVVpyq81yIJG55YgoLnk1QilKXIo5hFoEy0HxAQLY9kUBhVExeMZPnA0TEGDKGW622MbxYnY0NAlW1QRDHsQ1PCkJhgyAMI5c6EckC7L3seEeJ6fCEBIGF91jIOooqE4lqkiSh7V6KL7/q2lSa8CZQtuaUUUFnSHJ4peQF1857Mj6oojyK02jxuZS4I7IwOAXA+ZvOqUb2SJzYUl/GE7dIQLhz1zPCY4qoEJgQWcCViAncSp0ywIE4AduMH0dUkXoQw4aLrnvvaRoZvFQIkFQC7yomLUscqrc2VPXGwIvzXsIwRG4Fu9o2zzoCEJEgCBbdvHpEPJiMyyp9lVUxP63H6D6tWc1NNnBmL3ndZ2f7m1u/LF7BRGwDawwRqfeJFv9r85HqM1acV019sk/i6YC9tUEnOnMGZFGw+nHyzvl8REU9W64sR3nslNsm4JQ+KQRe2283rF01sX2vLLiT5tKxjt1/qlWIz1pjZTU9ytpViyz9Td14jeAE22XupGdVpqzCcEaFvKtoMhQ3CvFsUcE2rAehOwU6rVOVUyPvWlCy7uZEZAr937pnz+b77nnR5SMvfPra8f5Rn86Evim+GQY/aUsJEJEXU+gfB5dPxzouweWQLmAEEODCczf4JDG86MbU+8n8pQHUKrEY5JTaXcuhHQdZOgBsYegiJdn5RyzUsrIRjhwK3hWkXfS1QVsf1cllU48/I2q9YKywvHGg4NvKtCgz/Onn+k5RTlw25Z2zxlhjYs86sPyIXffFH7sPfXbLn982uaW9ol5eJYUBfzrt2M+UkPFkKyMrgfCUQb5Yalam86dE4CsvvvizX/mmMeSOv6R5ZKDzr4xRfC5qaHpCuP7o6O4JJHcTA3WhJpEkoTSqrj6Qzq6S+nUbhjf1VQvASNz374ePKA2lNnAMlWybzrd4pZ+YMvYIZ5gm7bgfobiyaxd8MlQsTk0eqZEJK5XZJqkdcMWBg4i//N3tt9+//QVXrLr+6g3DtlXQmVCaARwgdCoo7NMdvxA7DYK+MaD8VGzWeRKD8p8D4IoLziuEtpW2mAM5igu+kx2ZeyP/2c/9tldIkKusn9OPuc26h68ji7tm/5QUkoZAiT0l9bImI+JHZg8/b5CuHe7fGHkzs5cQjQz3OcI3D+w/1DeURiVlZWMkJgDCXcjGQjp5SlVOGYh/gV41NHeOzt/QrECHSZlFQc6TCMGCyq36pVS7adOa8cDsPNC8a6K+vdaWqD8xkQbUTFEY3LA/nv2b78984777bnz6+usu27g8nCi7CeMb1qcIQkiO4ZzvYR89njMiShx7UxlYjv5V4Mrp9CQ8aUXuhpooTwtuXDu2bs2KLfunFqK0Oz05eqV6yNYpS+SJEWeQBJqUVPslLaTTQ63aenI/dc7wtX0YmjlUqtcjGKXUtVvPrg4w+r++f0IrqStU26kDhQCgrLx01tczJD0hnm4ejwvOFeqzGzn+mdXLzm1N9tXitZVoRWVkS5vu3l/blyTTQaCVagx1xbIvjD4R1/7+Wzu/96NtL7hy/JkXja0aXEaNIyXXsuzyAPvZ77ioMCmVooFxBGVxYHvq37jENkcAOnwOEuDO+x/fsmMn20iz6pPu8XAJfrzOvQgdBsnuC51CYwVRFl8laOhdwSdhMjNaMMPgvtmJ9c1Dz6/qLauql+hsX3Oi6BMjlCaeRAvMQVJfPTRgyRw6PNUMyy0bERSkBCZdiCHntOVkjjJCqhl5EDTjlyKxA0lySTp786qRK4wO1KfKmgZpu1/1nNBe2lccljSN2/V2K6EgISIGmSAoj0y1zebHJh/cXatLeXTlqiiSNK2xEcrSJwDICTvHJKxEelxugQUms8j7nP3KU2FGqgMXPg/Dl6iW6DTM00mr4/whiagxdKgp3/ru9ygsZEEL7aY1z+ANJs143RmWIUaSSOOiT8u+MWbTvtnD443p86T5snNGnlUx61tTI+1aIM4qk7IxBgISX7FkvRuqVPsq/QempttpCmsEhtUQMvLcM2whj6OOKpo/awxWZO2uoFL06VDcWtOYfNU5Y+f5Vn9tuqzekFpxYdouJW7Q+2XFaNnwUDUwyfSsSRPxqSg8Qh/0c3ns0Kzb9vjeRx7dxTYYGl/puSBklAxBGU5JNecHXeL9WXQu+b2OqZJW1pYveD4Kq8n2LenaR8lSrCNJj6KRZ9hi///+l6+1lNSEeRaClko8c/xvZM5xxmQktKJlNAY57SM/4Br99QMb3cxLh+3LV/RtjGfGW/VyGsMzIYIYylLGBsSGBOxRFr+iUhov29rEoSasD4tWObTGn4X21guqY66IHYmsgRNSBMSRYqg+/XTMvGHT2KakOZK0AwJIwaxQYjAo8CYSGkCyITKXlEtDPq0367GK2CD2mjiYsKJUPFzHPdsm7310iopjQ8vWkFFCyurFpUzEnedvSZNZ8G2BOOeMMbU0SgYvrl58I8ywd4aXkKM+Wpa0Wc+ljMnAKfr7o+//6KHdh6c0w1qKLHWmJxAigg80DVSsSFHaVZntS2ZG6hOjs4eurPBL141fos1V8Ux/0opcmsXCQSZXB1KlDGXOVjRIk0DiaiCrx0ZrtUazVodzYPaAnOkNe2HrmGOOOoyjIgEj8r7SqA/XJp9RtTevHlrTODKYtCNJOxx9SkAHI0JWfUlaZddebs2q/uroUB+nbTc7y84BTNYmZMSWUzs4E9t7H3z0kR1P2FL/4OhKMgWoZRgSNb3Z/ZObzAJTIYDJBgGIZl2x/4KbguWXAxWBOR3vZwnqKFCijtdBeTnS3snG9+95QMMCEZ0NdWRIoHEorYq0KlIbsO3B6QPP0ObLV1RvGi2f066NuNTEcRZVzAh4vBElYc24qpkA4wkKKoZG08DHffAXDvUPEWZbzbqKs6E7jQd6kYEvqo45yJLgSE2aDLeb61szN4+WXrKssjyeKbuYNVHyngGCUWJop5+nBzmCYxX4dujiFeTPK4YXj5SLaWumNVv3iUbGGSYyXmxYGdg76W9/6OCDO2tcGR8eXRWSStI2RpbGJ7PgXAhqmJnVp0k41nfVq1FYB4RKzKexPy6hgbBkGfssZM1oJj4KzZ07Jm58061paUAImi5eiX9SY2EokULVESupBIBVF0mj7JuDaW0grQ9J+9pl/c8p2lVxbUQS224FNgDl7TCyZj4+a7InAOCZWcE+G7NkzLSJaMKF6crQI0Hft5449GhLpsNSy9qYQz+fFoo4hyVlsiDw96hfdT94zOpBVRnCXo1K6F2k7b52/fJK6TlDfVdwa7hd90kTPuGAhCAIoBxkRCQQJclOyjk8g+CdkCK1QaNUOlSsPKLFOw9PbpmtT5lCbMoalT2UrWE2ae1QMd132aroZddsuHLjQOimQ60FyHgpwOhCgbqTmQ8UWsQ6KtiBvBoZvap808fA64HgNM8NS1NHAJxHAfPnqwHc9I6P3/ngo6bc76UbLMyC20en+Ejnnbl0DrvqQbmXSM5DU7Iu8HFFfJVhkVZbUysbh64s802rlg/HsxXfLLt20fugp2bgKKXJU/xZe5/srTypJAr2zG0yzaA4GVW2NfydR2YfcnQwrGixPwZAjpklq08QZIwA6BSF0UJ9qCWHG+alXz20+MIQD01IAQQiVVXbqI2265cX+BnLB86vlkszk4NpK/RJVkw4BwLvAic72B/qKEoXE6/EseGEbWqiyTDa0kzvmmr/uJFMFQddud8HlolYYtYG4ukK2uePF1/8jE1XbagO0X7f2GfhLYM5cC7m7AlWi3lcbXIsgjBbTedIwuq+mNdc/XK+5M2gFT1xwwWt74lt1RI2a+1AKDonqpwF48nJ1p33PsBBQZkp68ibdz0/+qYdDYOibg5eAYaSEY28DzWJKB0w6ZBvDbSn+qcPbJLGC8f6n9MfrWtPL2vXiz4OxFso5TEg7T1AUc/SdcIc2StXVAJINVQpu7ictpeViueMj1aKYVqboWYj9AlLSgYCVcp6AoA60BvqXPWoFwDNeMl77p4QSInEG3WRpqWk2decGm5MXxzxDSuX3TDad66mg7XpYms2ggAiOagiuxKoN+B11OrNhdTUKAo+LaetapoMWLNubGR8ZMQ1Gr7RQJq6JElFnS05W21R5cBUvPn+bXsPT5ty3+DouIAztmhxCZv8qYUanUupds7hR6sjwZO31Wk7Pnzli1FaA1SPsQnHfOREsgTruKC0gR/vnn3JG9/Z5pLYSCRFZvZOJnhCQJdAWgEvkXdlxJHGRXJROlN19RXxzDURP2t0YI26Unu2RGLUGWFWEPu5PqmLBXuP2ne6b3d+8MwphU0b1gLbLJS2Tsw+MDFzfzueLPfXwmpsS3mQX7kbH9FMNXuudowp4KyrKyugLvKu6NuDaWM4rV1SCS4cqGwql0qtVlVMmCYBUssO6hW+F2y20GGjB3kkiqNur4oYJEE4q5QWqtNh5aHJ5K4jtQcSrVUHZ23gjAksAk1M0kYyazH5jAtGX3z5iovHuCqHApmxLJYhczkVyQezGHGC6GTan669ceyn3wGMA33o1M6csnU83ew7Axes7bvm8gu++aOHw0pwUnCEHnQx8naOwl6N9wWNi9rul7gvme1vTW+o0NUr+55ViAZnp/p8YlysVjOw+5k6MRmBNRq1a4OeGs2pZaXqRUPLr9DgviPTO2r1qXar5TWxgQYFBUOtYziTAaPzFZ/jXVbhDGopQOqswKqE3g0EdmXJbhoZOCcaOMf6/la9f+aQTTzUcmCJVJ0HBGbuvi+5XB4CAils3B5ippYfSNrD/UNrS6Mbm+mPD0/v5cJsGMYSShDFtgjb7+zof9y1pVIY/OlXvXvm4e/Upx4P3GzEqdEka1XWJRpZ5GjCCEOPvmXrroDvgwlxJmBFp2sdPdAC/vHbd7/tw58I+sccsejCDSzmiTiQGhULFRdrEv/09c9vTh58dPM9I8WgWptY2zz8/OV9V/cXhpuNAS8F5wwc4JB59MJARrvTtSWnaB0BJmVAlJ0QFDZm2zKFpg2ToHCgHe+ebe5r+ydbrsZhU4IGUYNSz8iia0T5rsbijUpREakrSzrENFoIxquVZWGwphgVfRJou+CTgncFJ2FGe5HtxySkUPU5ZcPcII9f/pqv47y55hzJ2bGdHduUwpjDqajy3UOT99bSx025Xh2YTh0Ca3yjYuWLf/Gn689dj3QGBx45/PA3kiMP9hdnA5mlNIUTG1hVNQvhWjzZlo/SwUsHX/BrsOtgiwB3epD0jmppZ9vTtY4EFIDrn3nVhlUrHp+sIyye+CMKZitJ04iTVm3N+PAH3veB17zgmm0PPPz+N/7nSNtfUODnbVx2ofVjjely3ObsAER531NzMuq+hPFLJxnJRgVwFq4Mp8zCZrmxG/ui+nBhgoJptdPCddEZ10xVnHe9uEYjqIZRxVJ/YPsZQwFKPgl9Ukqb1fp04NN5FY9Z6p9FSTLmBqLMCZVTMPtKc09dhtgTwEKsT8qSkKI/bZbHBi9aWb79SPPuIwcLbBIqHZqZec0b3rT+gmsgDqURrBocXb4a+++a2PJftemdZW6Viz5N6yHTgnTuHmFDK8P7aafZAAAgAElEQVTj58NUYbMmk8onsTUeX07XOgJw6hzZj336q//zb79EUcUha7u2cPKeFEwcMfnGTJXdW1/78lt/7nUDBVRVEE//x2997NBt33rmipFhafP0RD8MpUleJJojUyQP2cyhYxinYR0zYE/nLcmvR/AEVRKwsPHMMZmU2dtQDHnn2bA1lpmzoq2sCiwQMQpVbzqF4RZq1Fl1RrI9vccngwg5ACwhsuM/CSC9zX6PkQXmqB1vwXQxLmCAdc67FU9cU3XFSt0G+yn8/v6J++sJrTv3f33+i/2DA/AJDMEIEAMx4iPYde++B79l6rv6eapAMXx6LPynyQMT5pzV178Fy54OWtY5KxxbUf3UWkdALLEAN7/oxr/42y8kGcWcsKrmoT/trnUWqhCTJkmj/twrL/n4h3/h6o0jBa+IG3D19P/82zlHnriwwoOHnyyQFJhd3HQeUYG0F1yB3LpkAK0zLJ0DLSsAtUYBD/FlaatoxjDGCoBFRVSNtegUReSceeI91Bib860AGVvBvBtDIgs5WtpR2SXmTZi7ZWhZPSFAGXSOBIBRGQxD15odiYIBE46dM7Zuor7+edf0FxTJDIIACMSDTAVSJtOH88ZWjK/Dns2zj/2wNrmrbNsWbYOEVLq1lwmVqqsuw9jFkPAUXN3F5AxYR0AcOAHe/qt/8oVvfL+0bEW73VZ1ZEk0JRiIBoYBSZI20ua64epHb33XLS98VgmQZNpQgnvvPvC/v9ja/shA0iymLlCX3+DeEGImx75zmtKNpVBXFzm3teR6nLNOvzSiDM+XFeR7VYYYlY754Jw4hlgpb2kFBVQ9MbKS+9wKIiuum2/XpbvznvwU9aj/fNRGMb/fXsq2SdQulCZh+jaev+oVr8SlV6E8hCACQg9vAGgMasPPorZf9z54YMttprUzSCf6IpDzKpSyPYyVK6/7EK96JhB5sgYE8ALWcV5S4cRzOQPqqN55ssy47aG9L3zr+6k6GqcC1qgcxrUZY0sStyNyLqkXS+EbXvWyX3jTq8+pBIEX+AZq+6b+7R/3ff0blYMHlhsN/YI1rKc5wOOPvrtkAkauNGKBjjpm3qF28hPKQAglYXFQZQVJ4EEZXymZPJ4vCpE5NnKCkuHsyKxZlceCRxYBckDw2Zu0gsmapnezNtjL0fDTnr7upa/EZVeBQ7BFWOy0nPGAh5/E1EO6+67Du++Lp54YCh2DZ9tSXPesvp/6IOw5AvHiAl6E+vWpV0enzok3iGKDV334d77xg3u5OCIgUIvBBkbiJtcnb7jm8o996NanrV8ucMWkjjTF97+z40t/LXt2jwdhFCeBJqQLbGFnVx2Rn20hDIIz2e42z8bMpUYUHYARe4Ij9TltAxMkoxOxDJIsy8zZNu5ZiIiVqUMGTrr0jmtnSpRzo23FqzRMcCROW4W+FVdfO/iyV2PThQgqCCK1hvLIZgqahdZQn2g+ftfUY9+R1mQrDs997quw4QUpjWae/YKnb+ApV0cBUk0sWQNuA19/cMfrb/2wFEZSDeCacLE2mptWL//V9//8S5938aAKpAFt48md+7/8pYPfv21Fuz5Cwl4hCtKFb9LZVEcFhIUVJAz0qGM+O/bEnrmRimf2xF6JyDAzrBFCVCxk7SNAInFbXJKmiaZxwDZkE9mIvSdOA5HQs5Febvol4hjO2ISzx4lADj5BGChxKnZPnE6PjI1d85xVL3o5zr8IFIACIAATjIfEYECnUH+osfX+Wk3Gn/0ShOuBkkAUCweDgJ+EdZQOFYsD14G3/9Jv/ct37ikNjjYmJoZKwTtf+7O3vuk11RBVAWkTrQn82xcf/vevBJMTQ2zKXkMvBgmOQ1h4tq1j/iUCIFW1QUAUIk1hpOnSdhBNODSKlWBs+eCac6pj49XV69DXh0oJYQjDSBNYC2PQdkgdGnXUan7vniP79kw8sTuePFiK6wMk/Y6i1Kv3YPJKJjQk/izP7Nip9oRisjAT8sN4ylxnmnBCQ4NrrnlO+LOvxapNoBBBAZxhNwTShraALBZhEeRVWvOL1o/6xp6fnxp17LpBHpwCdzy842fedKvj8Kee/exf+4V3X7amWlUgiZE2sG3zw5/7tD5897i6imGkzlJEKgbJ/PLCo8Z42gM8rmjOXJkDILwNHYW12LWQahAMrV5TueIKXHo5RsdBBlNTOLTfTUzOHJmutduH262RlSvCQmn/rl0DairFaHhkWTA4iOWjqBRBilYNj27R++7bs3W7Ntpl5mpoLVSTxEKPRZmc5anOqaNyh3GKxAigcD62UdQm7E2lMb7h3JteWrjhRRhfDa8IQrDNFoizJ5ck4wjryGKBtp6fnyJ11M6fjLZ6IfPLn/zTjeee/7qbbygD7HzoWziys/2VL+76r2/01WeGlAoKn7eOyl0uAD8Zdex+KSUARM0M7G6xhbXr1l91dfjMZ6GvgiMH8eCD6ZYHDux83LgkbtfUi9HIl6u7RX7qgx/E6Pjtv/0/RutTUWPWg9haYROUCmNr1oTr1uLSy7FmLVoJHtry8De/Ge/ZvZKSZdaQc4AsRkx6Vqfc5SHvRKfAGbWQeIBjmHZU2RunpXUb1113I276GVSGUR4EspB4JxQ1L75zZgCjZ1QdCSBtQRVsgAiKpIZWA/fc8cA//FW0Z8dK+IoXcIhWjCBAYL1rcrco9myr44JwRWUoe0ZiJTZ2siF9q88ZefGLcPW1aDb1R3du/fEPm/v2VtP2gKZ9pBE5Ig9mJGZWeV+5cv6t78XyFQ/81m+umDgwAgUzSNtJ6oKoqTLttVmo0PCy9VddVb3q6Vi1GvfdW//6vz+55YGRUlgiFJzwfGKTMx7LOmYZGOhVRxAkvwsZYM8YsIUJJrwcMCHOvWDTi24On3kD+kaQoZyys///o+qYSSf8lTmSVj1cE9vvm/7K5/f/8HvLvJZTF+Rdz3s6zFMn5KGYH9Q+9bznosOTHDgMAox3zgHWBiGSpE54whg/suKSl70Wz7gW+3a6r/3jkw89VHAuY4224qyKzeKKeeEDGrawyxQvet/7sHr55k/+xrqJqcF23r8yaxXoGQ6Usk0InhAbHjlnY/mGF+Cqa3DfPTv//Z/j3Y+v9lpKUooCABrHFJiM8HgOaTtvrc6YHHXXCYBaJQhJHvQFPHHbcM3oViqY59/8nA/+Kgwr500aj18t2YlAPtVZmY50gS0AqSKND/3TFx796heWTexaK2lJgk4hy7Ej7HAEnO1tq+fyzjkbheLZ26BmzCRw4XOvw2tej5n23s985sDd3+trzKwscKETB53PeJbFcqAZ2oVDHEM2TgoDMR4BoZjnfF1s+NDD9z/66PbCpu+cf8st53z0Y/iXr2z92n+MRFG/0cClHoJUyAQ4FVDP0uRoVdKsmTOQUdSpQGFESipsbAV80RWXw/uMSZTOmgE/K/QuRIQ03fXd743Um8vDchQ38/YzeYXNU+4tZTKnUcIAPMTaJxNXW7H2kre8FWtW4R+//Njtt/P0zAWlii1UA21Tt/Fkz6OSoS48d6BlWZ5mIU+jY+5zq2ZVlkd2hHT6kfu2ffy+c6++mt7whvOfff2uv/mb5gMPrikEbC1D4GUu6tmFWOJs7t8QUH6YM9rpX81CgpgLT6TBxp9+cfG5NyAIgcVZkxa+7pxFPxlLeQpl/ycnPl05OLDv9u8NSIJWy9pQO9TE8wzNPJ7N3s8v8Uh2Qslw1hmwgEBh2AqDJ1Mdv/yKVb/4EdTqWz/1hwc337MCyTIS00gCJ2TRoRuY1wkh36wBTxwrBpeNwcftzfdXW61wvhfYyTvmeyErECcRtCJSDezu3bv2/+iuZWNjA298U//U9I7HdoQhjLj8qT126mfRYCqQ7U4EJQLE+IywpRYWZ8bOWfPO92N0pSDMaaWznPpxN+tjx3oyJc9nznc8StIEzdlDn/3TiX/53KZISYgU7BwU4J4uD73+0Dwg05n2HalDn67woJrRgzba8IJX2le9Bv/8T1u/9pUBavcR2cRZBWfMaWYObd6rjl0yE0+csnVkHcOqFLyz0jFsetTset5EhhhiZ82Uc1PGbnzO84I3vBV3/GD7l/5qWdqsSmicggjWIHHZ/59/tbMgHZMIWJBokKTinAaPSenSj/8hrnwmCgPg+ZRexx3Psb87Get41rjYjEUQLXvdm5pb7923/cFRQ0X1yMpofiKiCkLqnbF2VvRJpUve+BY87yWb/+hT8Y9uv6DMZSc2SURNhsbNEUR6PBtgVIx3yPunLj6vLoEWdXLfgIFQ6ivWpiHfd8/daPir3/bfzl0xsO33f8fBl42a1IU9LqmeUTqFBaTXKwBc6l0U7XfBhptejMuvQqnDLdHFmpwdOWvKwYBhDI+ue/t7joysbIHgHMhkNfnakbP17QuKWraFBOaA00tu/RCe86LNf/7pfmMHBvuaaexUEtcp9OGjUA7zJGvRoOCc/Eylw0/J83y+HC3G2QFOSbxxahKQAzmoeLg4sns4vPrWW6/+qefc8Qe/j5Xrz/vwr00Uwxl2PjBpu50PvNPx88wvSY/JVhZlyZ6uICwccjSz/vzym96Kcp8ye6ua9Vs4mzb67NkqRlSGGGy69KKXvWbSFmITghncfcx7QjyL3vpTEc2DR0dTk3lozeHxBBe847249Or/+thHVxTM+ne94/xbXjsR9c1whEqfUBf6erwBZfUIpzA2oRybrAwplvbH7uIXvAiXXolm0+558nuf+A2Mjp337vdOBcU4DDnqpXI9gwu0kGfXI554CnayNHDFG96C8TUwQVanLnSUET3zynPWjjLI8jQBbMmes8Hs33Nw966iUQvnNXOGhbIsmQKeIAzq5TKi3pPAEr4za4iUlaXnmBQAoqxOaZ/y+W98O2544ezvfJJ2P2qaE32D/XjWjcvOvXjPQw/XJybLxgZ5e7WMnmvBVza+znEjoyWi7Nyz0CsbFylpVlPLAMUm3O+petFlI29/Hw4cfvJP/nisMdPXrh26886hl7xydMP5O79/W39grAo04xw7Qztk9vArOlGdDq4Z8KkYE6lK3Ua7TOFpb34nfupFCMogQxlXcddv6V2Gzks6E6YcFnr062RGdxbVMS+SZwJxYdOmyS2PNI/sD8UbzW511+4r0EETnvaSd/iQlPKGUNniaGzsEROufsaz+TVv3P0nf1q/54erraTt2Uc3b14+vAJXPWP0vA14YjfPTIc+BRFO2DV9CWPKlZI6owGobcJ02fKVb3sXBgYf/au/NDu2jZMrwzUas3se3r7sla8aZfPYQw9XA2vFZdp8xly2+f4fdd7kIBTRNAx2JjJ+00vLr3wtKkOwUdZ7dc6F7vlBeuDLOOb3pyBnSx0z9Kbmj4lFqW9o3YaDd99tG7UIbESUsmNCZhRTZMt9+hQ/ChIisBJJ53EWMrNhaXbteaO/8AF84XPTP/jOqmJgfGyZKpaf3Lx5uD6F5zyzWLCNe+8uuqQ3PHOWpGnDZdc+C896Nr709xO3f2c8JKaE4IuhaR7cX9y/P3jDW9PDU+7g/pKmHYN2JoZEeV4q23znmTkWH4aHyUSXXb3iPR/AspWARea9LPi1i7iz/y+qowIKyU6EzEhjbwYGRkaGHrv37pIiUKeAQjkLq+asC2eqfpoBEjLKANQxt2w4HRU23vpe7Nq14x8+twKJ8allKy4uGRslzf2Pbe+bmX3y3rsL0xMF77Pz1pkYyaKSsNk3Wx/cu3f6ztv7WrOBpt6l6r1RGQyDnU88OVIdrL74pYe/f1sgPhCft5g6E6PKdKiHVANZGSOF9snUT4+t2fTeD2L1BpgSFoONZfL/L3WkPK5KAGxgoMCKFeODQ1vv+MHycsn5tjVWxDBMZx87I/HF/GxMWctwQIqlx1163otegvM2bPnTTw34uCAuAJGoRUDeW2iJuL5nTzQ9U/KpQXbQyBLrZ+vsbyBB3Gg9savQbheUjIhVYzVksWxtFIU7du4YveSigVXnPHjv/cORscgQyqeljkdtqcyUOQFg8oGteZoeGLvwg7+CCy5DUAbZuSqiBeUsqOPZOlnnvV6624wC6lHqw/UvuOyWNzzUbDdsmDiPLFyyGJbn1IR6DurEU+04WrsBP31T/Pd/x0cOhDn9fX70JoERKfhksJ0MtF0gyFuEnGWxIn1JMpC0C94ZFQYRUR4IS13Bu2pj4sgXP4dnXDty8WWHGu1sLmfkq7unDxUVETBpaKZU9kTF897yTlx2NWwRfKIVODtY9rOkjhlconOszXoABiHIoG+YX/dzy1/+2sMUUVhENi8+c7UjCqiAnJB4Rqyok910y2ux78Cue+5fyTbwEOKcZIfkqLM7CWdFMx3WqzMtXc9fGGIhFopO1J01+1JVStorjD28bTs237f2Va9JC+U2OMOOd84NpxIbo+45WgEFATYMUtIWyQFjL3nXe3DDi2CLsAUAIOnEX3s+fCrRjiXI2c6R5NcXAhmrxHAOfUOjb3pL/zXP3e1ti40eRxF7A8tLFZLYYJJ1eMN6nLN+61e/VlUtOVdiaykHkCqJZticbkF+N+h4Co/HsYfMpY9ZCV68NYHx0mdw91e/gtHh9Vc/fX+qKVs9mhDieErZmd38z6jk1AmAghMnLVPY4cylt7wJN74EQRkcdFthSIZ/PLte9Dw5S+qYZyOyJKcBbJde1obgEOXB8Vs/Ej37xn0KtRZO4W3OBoG5bj9zr6WJBVhJEisHAtP/khfjofvSh+7vIyKFtmMWnzGTdMKFGY+dA/e8yC2mkbrQ6+hf9LwxT7rWJdsQMgvUSUmTCqkYitQTFNXQmv078a2v46dfcKTcL8XSUTQHCytc51dCzpvEd4sQ8n1DMgI9AXlrHYJ9Llj7qnfgle+A7QdHYNOx1uBuK+qFNJIXeZ2OnPUMcjbELlRTwDHUmxD9y9a+/db+Zz7vUUetoAAz56wsynBykkKEMDSM2Xa7tG4DLrxw9j++tgJpVsRNEPYLWjDJbwPh1LbCo+7Zia0kHWODs38yAXAikehaS3u/919YsXrlZVcenqkx2ywKeDKiLEfPIbt+6lUpBeJCaTcXL3jF6wdueTOifpjCTwxR0JGn9OuJiIEI1lABUQGjy8d+/gP22dfvdL6NVLtp4jmLKEvWDALIgTwpC8Lznn0dDkwcfHx7VVLbU8RNyoso/SnmK7th7tN1rUiUHFgZEqRuyEtr335s3b7iWc/zFApsTzu9ntTPwmOyrNYIZ6lmZfGcUW+GZAueeFcrXfm6N/Eb3oJqRY/XKUsAkWNepzHJReUn9DQQVBVRhPHVGz7ysfHrXrhDuRHYjAQHnT1o3hn5pEVJfeqdIiz14aJLZn/044qxoaWFOQXOnCg6ZLin50BmVpNBrAKSiuW9P7gDa84pD422wZRvI133d5EdUpnEkti5p04ZYIFFoTgNuy+qXPTGt/a98k0oDyqM8ql3bjuD8hMZgYJ81rQZbBFWh973S2tf8ebdifdh0BaXaupZPMspGBsFvBqx4ZTKyg3rEAa77723YIxvt4mpK2dqJmSYmIiJDCuT0Bz76CIf6MninlCY1MeVUuHwtm1oNMcuvnhKod2m78pZiGCx4J9RmE5HJbKhODGIiAuHE9llixt//iP4mTcg7AcscbjUopazJE/9IHr3XwVZhEVUhytvfOuFr/25LZ5rUVkLFSEQBKdkz8T7GDLLFhdfiL27ZfqwZWa7CInMaYt4cc55yatnPNSp99A5EF2vCqrOvRaSLHcnhAzAliqQpkF9Bo8+jKddPsVISLsFzicww7kmihB8uw3lFPYwFQ4PjV3+gV/CdS9CdQQ2xBmP+56GPNWD6FFGyROoZBAW0DdMr3vHBe/6pX3F0cmUodZI5zC4lJ2PgIDVqW+V+3DhZXjwvkKzZlTIBme2sW7WqkNcXo0Qx3HsUiceTGQMM7NhNszMveoo3ov3Ktp9HXtlBXvi2HDKlqkYiCmldTx8Nzasbg9UG+q6scATGeM8/goSYyxK5YPMU6tXX/jR/4HnvhDFinQCH13Og1MNZZwx+Ul15s4mzOpAFh5kTAHlofAlr75s2Zrtf/FHOrl3IK0XnOthBMgPhj0I/wVFyFIK0sFRDI3Vt20fJJiMhAc+U6G5zF/PZZf8ZKoIURyGbafFcrk0MoK4laYSx3Hq0na7jZwJEqlz6KQbC0ERgCEChMEgCZQ6CY65rUCJU2YBl6MSDFl1Tx7YvyoqlFesctuOSCvmBU7BXfazOULNTFLmOCjsd1x62tPOf8f7seoCFMqes+ZfZx1mviR5qtWRwT2HMqKMuQ4QEJsIYFz1zHN/b+O23/v1Qw/etSagQcOIPXyW1cphkp2sj2DhrLLEwNDqTVDbmJiOEgeHWNVDDbMkaSkqdMoJGCRLIy0lgWrq4jCwKQd7PM674SZcdCmaDQTFABxk+54I0gTtFtIEzdS3W816I202W7V6GrfSdqxp4pLYwlO7GQhZeBHxEAuUYJz4Gnk10VSSxCJSKu4/PLkqxvjqje6hB7jaj3qbGIFn5Ok6UXZQ9sRQNsrwHWiT+DSIHmdaddNNw699B5athI3AMHNdDnpn13Ojjr5xT4X8BKzjIoXWAAgcohjC8Hm/+omJz3/6sW/860izuSIoRFBVB0BOnCwRqIqgb2gEteRwK960ck2sti1AIbDwleT/tndtMXIc1/XcW1XdPbM7+37xJZJ6UKFImwoh2RIQwzYiw5AUAbFlCPAL/nCCAPkMECSf+fBXPgIEAYLkL0hgwIDgJEDgIAGCxAYoWIkh62VIomSRWlE0uVxyd+exO9PdVffmo3pmZx9iRIcyd2Xdj0HPNLqmu+bMrbqPc283b626omARUFSQt7JDVQZC9Or3VI4/9Cgeevilv/0b32430lFrE5MlnDhXz1yWJiM1l6W1xqQZH2scPIQsgzFIMhgL8fAe7RZCifYaul301tHdQJFjfR2lzJ89C5OCM4gicw8UBfIwPjd3JQg2fMQN9QMHYFC/PJqQEDGMCcrq3NVedz2bOPP1b+DxLyGZQjoyWF/2xG5xq9ypxXqHDLblCtg6pg5N/8Efjx8//eJ3/662sjSHHJZFfFzXYueE99VpQVXDxOwsWq184VD6p3+SJo0xcnAEKrF4fvE7fzbjUPMeamP3yVtApDKpIzYgyYswcfrB1R/9qLZ6+YAz2tuAgNY0iBjnyuDboSw0lB4FmVx5nVjrDWT1bGq6Nj1Tm52bO3zX+IG78NAjmJ5B8GjewNJVXHoXrTY++1lMTKNkgGEYrfbG4sX6oYXSMkIpxFWycqT/CQNMLESewUos4IJ5MS/LU2cf/L0/xMkH4erDsYa9KXvv/irPToJaYn/7dx7+jVNLf/0X777xSsOUNUVS9MxNSu8BiJVnwZgc9+3VvNPBy6/CjeTG5VqMacD1S9ZZ+CGbim7FT1hlrTOIyuChMGwA2CQpyyCEEMogPvRKssaliTOuXquNTkxi7gAmpzBzAPUR1OtwCdih1WlfuNB64YXmtWvd1Rtlq2nznnaampjGqy8WnKiQMQkr3llZ+eQTj9dP3K2WhawIqAotb/kjsaJkFIY7NrsOvuepp2pf/QZmDkIzOFsFrPeiWqxkz8CRhnffXJWHrdVw9Nj8d/68/JdnX/vnZ0eXrxy2qZVCiCg2mNjFMmVPpMZhLOOl96aXr6781V/2TLKuwWWuqX6UZCIUqSgpUfzGSs9EWuDQgMOuweFj9RoQQC5LV196YfJLv3v18sXXlpdHxidr9bGRyfHRscbI7AxqNYyPo5ZBFRsdtNvY6OHtn4e1VntttbeRr7Y7bFjEE6kjzUBWjYo3RpV85+fnjYJELZOoHwXlV07h1Akytlf0Ek6gqCIF5H3wxGlsB+pddkW5MzP7m7//Rzj7CEwCTsAsqNp87CXTZbvsGTgCGKIrx02dsDVch3Puy187c+Lk0rPfvfDC87PM44kpOs26MbS1PgSio82YAIXh5eZquyhGiI3TGiiUeRBdCT6ImMQBUAQAjiwDgpv9VMZUzmdVBQkbMKXrLrnw+psnp86d+Na3UQZoBiX0NmRj/UZrrbPaaV54b6PVylstLgsqcyqKUcCpr1ubJmZhds6QBimjG5GIiIwXURbreEzJknWG2UBRjguNToyDbeoSk7vKXCJRDayeDOcavEmapWkiPf7YF0ef+Sbm7oatw1mgyvG8tXXgTsjegGPFA2HW2HUMSrECBCuDOIFhnHlk/vj9Yz/4pzf/9fvtpcUDiQs+WGBbxRKQEAc2jKw+/9gT8wePI7HIMkARWQfWgSysqbJpqtBe/3LngL4u3PkahQ0oJrvQvWmG9TbmJjA2hjygs45ej1WnRaeZYQ3YwCZVTrUKDMF3IQESqn1JUBCh9IgeShGQwFoIgR0kgAnwB8sS9XFcuVyjxPYb38Yii6yOnbvR7a2mtjhx/ye//m2cPouxSaiLWNQgZDg62G8jI+3DkA+tKMotydAt9DkcJQYaK5TGJACj6GG9iauLne///S/+51yjKOqhqIVgoaQhZtkridd8ydYOPfkMHbsfZQHnwIAvUYY+e55LCUCfkZ2Xpr9N8GGzyE5ZFJvHvty8wzJAFCH4EJy1BXwJXxQFRFNrGUwiGkRVg2rslQlAVUDiQ+nFg8SQ+rwwIAgZUNkrLYPZeC2J2DL73KsQEZFl0VD2chEZD35y5epIr0dEQgjsAyNXWlUqpmdPfOFJevxpTB9CWlM2BANC9Oz2ny86yPbu3nFvwHFI+i7p3UxdFYQSZY5uBxfffOt7/9B7/ZWJztpCAqfB5wVTIgSykiualBTC5AVR18bBVT0oFq0iRewORKzbnJc8pAuJWFXitf2zlohIIRJUVZnIkEggBROJamxCa4xh3gy+9TvGSYh/iEH8UzQGeGxsBQdo7AnCBEAlYplJwWpr1iZSSN5jZ/MyeIMVNtcaY/d8/ouTTz6NI/fB1GEtjEgFu5p69fUAAAY+SURBVL2LvF1lz8Jx+N32Y4VS0UW5jufPvfOP32u9+fpo0Zmv120pRkriAFEKRMoUF9/hKPmgx/WA572zQe7wnMTjLWZNn2coUhXxYa7qxg52DqpQ1T7UAAyONwODMciksrV4JEhimQqOLqt+D0MLYhALJGcrtZFr3SKvjc5+4sz0l5/G6TNIJ+ANkhSEqr3cx3C83bI7HAFABfkGoMhbxfPPLf7bD+Tt843O6kxCxhcMIjIQhhIkbF6uW0LgVY/UHXAcnpOoGocRQ304apAIJjKsISpaqmC3WbCBBgP1KxIMBpctnwMxPjTAq7JENQxwTOQWSBd2hdOl0YmJM5++96lncPoMtECawo5A+jEuGmjHfSb7Fo4AABVPDGysodPBf5+79sN/X37j1YYPddU6aaLKXniwHSRRUd2RJbQzA5q2uXhUMYTRDwLHAaQ+oHakigXA1XfFQfqVPJSpZO5Zvr6Rm+n5qQfOTD7xFXziIWTjYAuGiDDbTebr3rZXbiL7GI6KUO35gkBLhIBOE+dfW/zhfyz95MfZ2vJ0KKdJMpegFBiGesRfOl7P/aAGvU/se4uvcfj07dE6ulsXDyLSeGeiCmjiuiTr8CvGFXPHj3zqc5OffwzH7wOlMAmMrWolaP8l3tqAH73fcLmv4RixxBhAkxRFjl4bF9/Kn/uvxeefK9+71JAwmWU2lCl5VoFgsL3TPmcKdw6O2zUxsZKBtQXResD1oixHayNHDh979DN49AtYOI56AyaFUiCAAisoFkclKKkQYdA1bL9hEfsajiFWUpC+YSKBxCOU8JEI59Fu4uWfvvfj5669/GJt9dq8dhtSOLaDcjcDOO5ebOJOaMdA3BNeCbreGNP5g2Onzhz+rc/h5Gk0pkAMD6T16L5XUoKvogaK2Ka9jHCsMkn3n+xfOHKIoT0hDBYpCQglwLAJCCh7kBJlicWL+NlPV879Z3fp3fbStRp0LHNGhOGNShLE7N6ac6hCzRbo/P9+6H5yqyAIcckciNe998yeuOAkmZ5v3H3v1KcfxdmHMTmHbBScgmzlhPUKE50DGvtyxmAWyTY4ysemzIck75dus2O6B2mnAyKiCoJAPMQjeLRW8OpLl176ycobr5jmdbverBf5vLOpaJ/kLqqqKmwSwEEZ4iHaT8AepLhiZxe+rfa4AtsaAYGY1INcCmYEL4zSuOUyNI3NG+PJwsGDJ09P3f8APvUZmAyGY68hsK1KYmza6BW7lbdMDm9/sw/lowXHDzRYF70O2qu49DZ+9vLy+deKy5fLtdViY92IWOhoZh1BC5/BGQWriAgkqFbpbbbyZRpgcxs6GF41VlCFAMYAxgqbUlEGLVTVpL08FKriHKVZfWG+ceTo2D0n8MBpHDyM2XnAglLlqu7tneY9/6rlIw/HoWslhq0FAEIJx1BB3sVaCzeuFxffunHh4saVy37lum+tJvkG2s1MSyPiQE41ISTRC7hbCvDAdxldM4UGD/UquXKP0sJlPk3zpJZMLyTTszNHj00dOYZDR3H4LoyOQAGXVA5Im4Cob2T9H52tPnryawTHmEkAoPSls6mIDxIcW0DhA0IBKIocrVUsX8P1JVx5B83Vzo0bvWYzb7V8r+u7uQPyoqsqIQgrIlkWABGzgogCQwxljVFbS5ORmslGJo/eh8kZLBzC5AzmFlBvIE1BFraGEJAkkAA2GDKHh3ycH8Nxz8ntWax3e1IhBZj6lMXYP7VfVEkE0YUugqKHIkdvA3kP3R5EEDz81n6r1iFxqGdIE4yOwBm46Be0IK7ygGCqjSBzXIl3C5/8mq3QQ7I3EszunEQinRAPjPPBwhv1UvRqRkcSNEC1wm4Mrrg+fTt+ToBhxGJ1mwzFYaNnkwkxAHLY9Mvs6VTtX4HsPTh+GC7cGJveZAwqquwyCMlWZuf7sHAiz4v7QQ+1VbF9DOVYDFj9UYh5R2BkEDHX/nfFj6NhP5xAcjtQObyqDI23h53kFttWMBqakkp2PNUv9Tybf/ybMKV33zjcCtlv18G3pS70qbFDRon0sbabfiKASBXqRVWZDZlIio1n+xE6DUqxKhYNXbnzWXaeYIXozlPbnmVo2j8AM3yXGZPBv+1WNmi/FAt9U/qZdTcZZ3PO/xcoaa9C0sqt5wAAAABJRU5ErkJggg==;rounded=1;sketch=1;curveFitting=1;jiggle=2;fillColor=#FAE5C7;strokeColor=#0F8B8D;fontColor=#143642;" vertex="1" parent="1">
          <mxGeometry x="-703.46" y="409.32" width="66.91" height="62" as="geometry" />
        </mxCell>
        <mxCell id="m03nG1BBD5Hme34XasrQ-42" style="edgeStyle=orthogonalEdgeStyle;rounded=1;orthogonalLoop=1;jettySize=auto;html=1;entryX=0.5;entryY=0;entryDx=0;entryDy=0;entryPerimeter=0;labelBackgroundColor=none;fontColor=default;sketch=1;curveFitting=1;jiggle=2;strokeColor=#A8201A;" edge="1" parent="1" source="m03nG1BBD5Hme34XasrQ-37" target="m03nG1BBD5Hme34XasrQ-40">
          <mxGeometry relative="1" as="geometry" />
        </mxCell>
        <mxCell id="m03nG1BBD5Hme34XasrQ-37" value="" style="shape=cube;whiteSpace=wrap;html=1;boundedLbl=1;backgroundOutline=1;darkOpacity=0.05;darkOpacity2=0.1;labelBackgroundColor=none;rounded=1;sketch=1;curveFitting=1;jiggle=2;" vertex="1" parent="1">
          <mxGeometry x="-448" y="550" width="138" height="100" as="geometry" />
        </mxCell>
        <mxCell id="m03nG1BBD5Hme34XasrQ-38" value="" style="shape=image;verticalLabelPosition=bottom;labelBackgroundColor=none;verticalAlign=top;aspect=fixed;imageAspect=0;image=https://storage.googleapis.com/replit/images/1674860936774_6fb6d5d34d7acf72e00b99dcfd903979.jpeg;rounded=1;sketch=1;curveFitting=1;jiggle=2;fillColor=#FAE5C7;strokeColor=#0F8B8D;fontColor=#143642;" vertex="1" parent="1">
          <mxGeometry x="-427.52" y="573" width="117.52" height="76" as="geometry" />
        </mxCell>
        <mxCell id="m03nG1BBD5Hme34XasrQ-40" value="" style="shape=cylinder3;whiteSpace=wrap;html=1;boundedLbl=1;backgroundOutline=1;size=15;labelBackgroundColor=none;rounded=1;sketch=1;curveFitting=1;jiggle=2;" vertex="1" parent="1">
          <mxGeometry x="-290" y="630" width="80" height="100" as="geometry" />
        </mxCell>
        <mxCell id="m03nG1BBD5Hme34XasrQ-41" value="" style="shape=image;verticalLabelPosition=bottom;labelBackgroundColor=none;verticalAlign=top;aspect=fixed;imageAspect=0;image=https://www.stackery.io/assets/images/posts/redis-cache-cluster-support/featured.svg;rounded=1;sketch=1;curveFitting=1;jiggle=2;fillColor=#FAE5C7;strokeColor=#0F8B8D;fontColor=#143642;" vertex="1" parent="1">
          <mxGeometry x="-279.68" y="670" width="59.36" height="51" as="geometry" />
        </mxCell>
        <mxCell id="m03nG1BBD5Hme34XasrQ-54" style="edgeStyle=orthogonalEdgeStyle;rounded=1;orthogonalLoop=1;jettySize=auto;html=1;entryX=0.5;entryY=0;entryDx=0;entryDy=0;labelBackgroundColor=none;fontColor=default;sketch=1;curveFitting=1;jiggle=2;strokeColor=#A8201A;" edge="1" parent="1" source="m03nG1BBD5Hme34XasrQ-44" target="m03nG1BBD5Hme34XasrQ-52">
          <mxGeometry relative="1" as="geometry" />
        </mxCell>
        <mxCell id="m03nG1BBD5Hme34XasrQ-44" value="" style="shape=actor;whiteSpace=wrap;html=1;labelBackgroundColor=none;rounded=1;sketch=1;curveFitting=1;jiggle=2;" vertex="1" parent="1">
          <mxGeometry x="-117.5" y="300" width="74" height="60" as="geometry" />
        </mxCell>
        <mxCell id="m03nG1BBD5Hme34XasrQ-53" style="edgeStyle=orthogonalEdgeStyle;rounded=1;orthogonalLoop=1;jettySize=auto;html=1;entryX=0;entryY=0;entryDx=59;entryDy=0;entryPerimeter=0;labelBackgroundColor=none;fontColor=default;sketch=1;curveFitting=1;jiggle=2;strokeColor=#A8201A;" edge="1" parent="1" source="m03nG1BBD5Hme34XasrQ-45" target="m03nG1BBD5Hme34XasrQ-37">
          <mxGeometry relative="1" as="geometry" />
        </mxCell>
        <mxCell id="m03nG1BBD5Hme34XasrQ-45" value="" style="shape=callout;whiteSpace=wrap;html=1;perimeter=calloutPerimeter;labelBackgroundColor=none;rounded=1;sketch=1;curveFitting=1;jiggle=2;fillColor=#FAE5C7;strokeColor=#0F8B8D;fontColor=#143642;" vertex="1" parent="1">
          <mxGeometry x="-140" y="430" width="100" height="130" as="geometry" />
        </mxCell>
        <mxCell id="m03nG1BBD5Hme34XasrQ-52" value="" style="shape=image;verticalLabelPosition=bottom;labelBackgroundColor=none;verticalAlign=top;aspect=fixed;imageAspect=0;image=https://static.thenounproject.com/png/2215751-200.png;rounded=1;sketch=1;curveFitting=1;jiggle=2;fillColor=#FAE5C7;strokeColor=#0F8B8D;fontColor=#143642;" vertex="1" parent="1">
          <mxGeometry x="-130" y="430" width="99" height="99" as="geometry" />
        </mxCell>
        <mxCell id="m03nG1BBD5Hme34XasrQ-56" value="&lt;h1&gt;МЕНЕДЖЕР КОНТЕНТА&lt;br&gt;&lt;/h1&gt;&lt;p&gt;Наполняет БД информацией о фильмах&lt;br&gt;&lt;/p&gt;" style="text;html=1;strokeColor=#666666;fillColor=#f5f5f5;spacing=5;spacingTop=-20;whiteSpace=wrap;overflow=hidden;rounded=1;labelBackgroundColor=none;sketch=1;curveFitting=1;jiggle=2;fontColor=#333333;" vertex="1" parent="1">
          <mxGeometry x="-427.52" y="-35" width="190" height="120" as="geometry" />
        </mxCell>
        <mxCell id="m03nG1BBD5Hme34XasrQ-57" value="&lt;h1&gt;ПОЛЬЗОВАТЕЛЬ&lt;br&gt;&lt;/h1&gt;&lt;p&gt;Через голосового ассистента получает информацию о фильмах&lt;br&gt;&lt;/p&gt;" style="text;html=1;spacing=5;spacingTop=-20;whiteSpace=wrap;overflow=hidden;rounded=1;labelBackgroundColor=none;sketch=1;curveFitting=1;jiggle=2;fillColor=#f5f5f5;fontColor=#333333;strokeColor=#666666;" vertex="1" parent="1">
          <mxGeometry x="-150" y="195" width="220" height="90" as="geometry" />
        </mxCell>
        <mxCell id="m03nG1BBD5Hme34XasrQ-58" value="&lt;div&gt;API&lt;/div&gt;" style="text;html=1;strokeColor=none;fillColor=none;align=center;verticalAlign=middle;whiteSpace=wrap;rounded=1;labelBackgroundColor=none;sketch=1;curveFitting=1;jiggle=2;fontColor=#143642;" vertex="1" parent="1">
          <mxGeometry x="-376.18000000000006" y="573" width="96.5" height="30" as="geometry" />
        </mxCell>
      </root>
    </mxGraphModel>
  </diagram>
</mxfile>
